<?xml version="1.0" encoding="UTF-8" standalone="no"?>
<!-- Created with Inkscape (http://www.inkscape.org/) -->
<svg xmlns:dc="http://purl.org/dc/elements/1.1/" xmlns:cc="http://creativecommons.org/ns#" xmlns:rdf="http://www.w3.org/1999/02/22-rdf-syntax-ns#" xmlns:svg="http://www.w3.org/2000/svg" xmlns="http://www.w3.org/2000/svg" xmlns:xlink="http://www.w3.org/1999/xlink" xmlns:sodipodi="http://sodipodi.sourceforge.net/DTD/sodipodi-0.dtd" xmlns:inkscape="http://www.inkscape.org/namespaces/inkscape" width="694.59888" height="243.82439" id="svg8640" version="1.1" inkscape:version="0.48.2 r9819" sodipodi:docname="vagon marfa.svg" inkscape:export-filename="C:\Users\Cristi\Documents\caiet de lucru\imagini\vagon marfa.png" inkscape:export-xdpi="300" inkscape:export-ydpi="300">
  <defs id="defs8642">
    <linearGradient id="linearGradient10080">
      <stop style="stop-color:#800000;stop-opacity:1;" offset="0" id="stop10082"/>
      <stop style="stop-color:#fa5f5f;stop-opacity:1;" offset="1" id="stop10084"/>
    </linearGradient>
    <linearGradient id="linearGradient10051">
      <stop style="stop-color:#1a1a1a;stop-opacity:1;" offset="0" id="stop10053"/>
      <stop style="stop-color:#8c8c8c;stop-opacity:1;" offset="1" id="stop10055"/>
    </linearGradient>
    <linearGradient id="linearGradient10039">
      <stop style="stop-color:#808080;stop-opacity:1;" offset="0" id="stop10041"/>
      <stop style="stop-color:#d0d0d0;stop-opacity:1;" offset="1" id="stop10043"/>
    </linearGradient>
    <linearGradient id="linearGradient10027">
      <stop style="stop-color:#333333;stop-opacity:1;" offset="0" id="stop10029"/>
      <stop style="stop-color:#b9b9b9;stop-opacity:1;" offset="1" id="stop10031"/>
    </linearGradient>
    <linearGradient id="linearGradient9769">
      <stop style="stop-color:#800000;stop-opacity:1;" offset="0" id="stop9771"/>
      <stop style="stop-color:#f55656;stop-opacity:1;" offset="1" id="stop9773"/>
    </linearGradient>
    <linearGradient inkscape:collect="always" id="linearGradient9759">
      <stop style="stop-color:#333333;stop-opacity:1;" offset="0" id="stop9761"/>
      <stop style="stop-color:#333333;stop-opacity:0;" offset="1" id="stop9763"/>
    </linearGradient>
    <linearGradient inkscape:collect="always" id="linearGradient9727">
      <stop style="stop-color:#333333;stop-opacity:1;" offset="0" id="stop9729"/>
      <stop style="stop-color:#333333;stop-opacity:0;" offset="1" id="stop9731"/>
    </linearGradient>
    <linearGradient id="linearGradient9635">
      <stop style="stop-color:#333333;stop-opacity:1;" offset="0" id="stop9637"/>
      <stop style="stop-color:#bcbcbc;stop-opacity:1;" offset="1" id="stop9639"/>
    </linearGradient>
    <linearGradient inkscape:collect="always" id="linearGradient9263">
      <stop style="stop-color:#ffffff;stop-opacity:1;" offset="0" id="stop9265"/>
      <stop style="stop-color:#ffffff;stop-opacity:0;" offset="1" id="stop9267"/>
    </linearGradient>
    <filter inkscape:collect="always" id="filter9251" color-interpolation-filters="sRGB">
      <feGaussianBlur inkscape:collect="always" stdDeviation="1.5981906" id="feGaussianBlur9253"/>
    </filter>
    <linearGradient inkscape:collect="always" xlink:href="#linearGradient9263" id="linearGradient9403" gradientUnits="userSpaceOnUse" x1="253.27765" y1="250.22589" x2="179.99661" y2="203.35429"/>
    <linearGradient inkscape:collect="always" xlink:href="#linearGradient9263" id="linearGradient9405" gradientUnits="userSpaceOnUse" x1="253.27765" y1="250.22589" x2="179.99661" y2="203.35429"/>
    <linearGradient inkscape:collect="always" xlink:href="#linearGradient9263" id="linearGradient9673" gradientUnits="userSpaceOnUse" x1="253.27765" y1="250.22589" x2="179.99661" y2="203.35429"/>
    <linearGradient inkscape:collect="always" xlink:href="#linearGradient9263" id="linearGradient9675" gradientUnits="userSpaceOnUse" x1="253.27765" y1="250.22589" x2="179.99661" y2="203.35429"/>
    <linearGradient inkscape:collect="always" xlink:href="#linearGradient9727" id="linearGradient9733" x1="182.5" y1="330.93362" x2="182.5" y2="337.72873" gradientUnits="userSpaceOnUse"/>
    <linearGradient inkscape:collect="always" xlink:href="#linearGradient9727" id="linearGradient9735" x1="182.5" y1="330.93362" x2="182.5" y2="337.72873" gradientUnits="userSpaceOnUse"/>
    <linearGradient inkscape:collect="always" xlink:href="#linearGradient9727" id="linearGradient9737" x1="182.5" y1="330.93362" x2="182.5" y2="337.72873" gradientUnits="userSpaceOnUse"/>
    <linearGradient inkscape:collect="always" xlink:href="#linearGradient9727" id="linearGradient9739" x1="182.5" y1="330.93362" x2="182.5" y2="337.72873" gradientUnits="userSpaceOnUse"/>
    <linearGradient inkscape:collect="always" xlink:href="#linearGradient9727" id="linearGradient9741" x1="182.5" y1="330.93362" x2="182.5" y2="337.72873" gradientUnits="userSpaceOnUse"/>
    <linearGradient inkscape:collect="always" xlink:href="#linearGradient9727" id="linearGradient9743" x1="182.5" y1="330.93362" x2="182.5" y2="337.72873" gradientUnits="userSpaceOnUse"/>
    <linearGradient inkscape:collect="always" xlink:href="#linearGradient9727" id="linearGradient9745" x1="182.5" y1="330.93362" x2="182.5" y2="337.72873" gradientUnits="userSpaceOnUse"/>
    <linearGradient inkscape:collect="always" xlink:href="#linearGradient9727" id="linearGradient9747" x1="342.22098" y1="888.13599" x2="540.43048" y2="835.02588" gradientUnits="userSpaceOnUse"/>
    <linearGradient inkscape:collect="always" xlink:href="#linearGradient9727" id="linearGradient9749" x1="-750.29114" y1="626.95734" x2="-697.18103" y2="825.16687" gradientUnits="userSpaceOnUse"/>
    <linearGradient inkscape:collect="always" xlink:href="#linearGradient9727" id="linearGradient9751" x1="933.36383" y1="-165.29091" x2="1052.4236" y2="1.8392434" gradientUnits="userSpaceOnUse"/>
    <linearGradient inkscape:collect="always" xlink:href="#linearGradient9727" id="linearGradient9753" x1="923.59937" y1="1218.1002" x2="756.46918" y2="1337.1599" gradientUnits="userSpaceOnUse"/>
    <linearGradient inkscape:collect="always" xlink:href="#linearGradient9727" id="linearGradient9755" x1="182.5" y1="330.93362" x2="182.5" y2="337.72873" gradientUnits="userSpaceOnUse"/>
    <linearGradient inkscape:collect="always" xlink:href="#linearGradient9759" id="linearGradient9765" x1="591.42859" y1="332.67468" x2="591.42859" y2="339.1745" gradientUnits="userSpaceOnUse"/>
    <linearGradient inkscape:collect="always" xlink:href="#linearGradient9769" id="linearGradient9805" gradientUnits="userSpaceOnUse" gradientTransform="matrix(1,0,0,0.90589434,0,110.13606)" x1="321.48105" y1="173.52946" x2="321.48105" y2="184.6456"/>
    <linearGradient inkscape:collect="always" xlink:href="#linearGradient9769" id="linearGradient9808" gradientUnits="userSpaceOnUse" gradientTransform="matrix(1,0,0,0.90589434,0,91.209698)" x1="321.48105" y1="173.52946" x2="321.48105" y2="184.6456"/>
    <linearGradient inkscape:collect="always" xlink:href="#linearGradient9769" id="linearGradient9811" gradientUnits="userSpaceOnUse" x1="321.48105" y1="173.52946" x2="321.48105" y2="184.6456" gradientTransform="matrix(1.0079657,0,0,0.90589434,-3.0230647,72.28334)"/>
    <linearGradient inkscape:collect="always" xlink:href="#linearGradient9769" id="linearGradient9815" gradientUnits="userSpaceOnUse" gradientTransform="matrix(1,0,0,0.90589434,0,129.0624)" x1="321.48105" y1="173.52946" x2="321.48105" y2="184.6456"/>
    <linearGradient inkscape:collect="always" xlink:href="#linearGradient9769" id="linearGradient9819" gradientUnits="userSpaceOnUse" gradientTransform="matrix(1,0,0,0.90589434,0,147.98876)" x1="321.48105" y1="173.52946" x2="321.48105" y2="184.6456"/>
    <linearGradient inkscape:collect="always" xlink:href="#linearGradient9769" id="linearGradient9827" gradientUnits="userSpaceOnUse" x1="321.48105" y1="173.52946" x2="321.48105" y2="184.6456"/>
    <linearGradient inkscape:collect="always" xlink:href="#linearGradient9769" id="linearGradient9829" gradientUnits="userSpaceOnUse" gradientTransform="translate(0,20.892462)" x1="321.48105" y1="173.52946" x2="321.48105" y2="184.6456"/>
    <linearGradient inkscape:collect="always" xlink:href="#linearGradient9769" id="linearGradient9831" gradientUnits="userSpaceOnUse" gradientTransform="translate(0,41.784921)" x1="321.48105" y1="173.52946" x2="321.48105" y2="184.6456"/>
    <linearGradient inkscape:collect="always" xlink:href="#linearGradient9769" id="linearGradient9861" gradientUnits="userSpaceOnUse" x1="321.48105" y1="173.52946" x2="321.48105" y2="184.6456"/>
    <linearGradient inkscape:collect="always" xlink:href="#linearGradient9769" id="linearGradient9863" gradientUnits="userSpaceOnUse" gradientTransform="translate(0,20.892462)" x1="321.48105" y1="173.52946" x2="321.48105" y2="184.6456"/>
    <linearGradient inkscape:collect="always" xlink:href="#linearGradient9769" id="linearGradient9865" gradientUnits="userSpaceOnUse" gradientTransform="translate(0,41.784921)" x1="321.48105" y1="173.52946" x2="321.48105" y2="184.6456"/>
    <linearGradient inkscape:collect="always" xlink:href="#linearGradient9769" id="linearGradient9867" gradientUnits="userSpaceOnUse" gradientTransform="matrix(1.0079657,0,0,0.90589434,135.36783,72.28334)" x1="321.48105" y1="173.52946" x2="321.48105" y2="184.6456"/>
    <linearGradient inkscape:collect="always" xlink:href="#linearGradient9769" id="linearGradient9869" gradientUnits="userSpaceOnUse" gradientTransform="matrix(1,0,0,0.90589434,138.3909,91.209698)" x1="321.48105" y1="173.52946" x2="321.48105" y2="184.6456"/>
    <linearGradient inkscape:collect="always" xlink:href="#linearGradient9769" id="linearGradient9871" gradientUnits="userSpaceOnUse" gradientTransform="matrix(1,0,0,0.90589434,138.3909,110.13606)" x1="321.48105" y1="173.52946" x2="321.48105" y2="184.6456"/>
    <linearGradient inkscape:collect="always" xlink:href="#linearGradient9769" id="linearGradient9873" gradientUnits="userSpaceOnUse" gradientTransform="matrix(1,0,0,0.90589434,138.3909,129.0624)" x1="321.48105" y1="173.52946" x2="321.48105" y2="184.6456"/>
    <linearGradient inkscape:collect="always" xlink:href="#linearGradient9769" id="linearGradient9875" gradientUnits="userSpaceOnUse" gradientTransform="matrix(1,0,0,0.90589434,138.3909,147.98876)" x1="321.48105" y1="173.52946" x2="321.48105" y2="184.6456"/>
    <linearGradient inkscape:collect="always" xlink:href="#linearGradient9635" id="linearGradient9905" gradientUnits="userSpaceOnUse" gradientTransform="translate(0,15.714286)" x1="382.85715" y1="248.79076" x2="397.16071" y2="248.79076"/>
    <linearGradient inkscape:collect="always" xlink:href="#linearGradient10027" id="linearGradient10033" x1="54.16943" y1="297.14688" x2="54.16943" y2="289.43872" gradientUnits="userSpaceOnUse"/>
    <linearGradient inkscape:collect="always" xlink:href="#linearGradient10027" id="linearGradient10037" gradientUnits="userSpaceOnUse" x1="54.16943" y1="297.14688" x2="54.16943" y2="289.43872" gradientTransform="matrix(0.24884254,0,0,1,28.974489,0)"/>
    <linearGradient inkscape:collect="always" xlink:href="#linearGradient10039" id="linearGradient10045" x1="46.845825" y1="297.02063" x2="46.845825" y2="293.84125" gradientUnits="userSpaceOnUse"/>
    <linearGradient inkscape:collect="always" xlink:href="#linearGradient10039" id="linearGradient10072" gradientUnits="userSpaceOnUse" x1="46.845825" y1="297.02063" x2="46.845825" y2="293.84125"/>
    <linearGradient inkscape:collect="always" xlink:href="#linearGradient10027" id="linearGradient10074" gradientUnits="userSpaceOnUse" x1="54.16943" y1="297.14688" x2="54.16943" y2="289.43872"/>
    <linearGradient inkscape:collect="always" xlink:href="#linearGradient10027" id="linearGradient10076" gradientUnits="userSpaceOnUse" gradientTransform="matrix(0.24884254,0,0,1,28.974489,0)" x1="54.16943" y1="297.14688" x2="54.16943" y2="289.43872"/>
    <linearGradient inkscape:collect="always" xlink:href="#linearGradient10080" id="linearGradient10086" x1="578.39288" y1="207.71933" x2="571.59778" y2="207.71933" gradientUnits="userSpaceOnUse"/>
    <linearGradient inkscape:collect="always" xlink:href="#linearGradient10080" id="linearGradient10090" gradientUnits="userSpaceOnUse" x1="578.39288" y1="207.71933" x2="571.59778" y2="207.71933" gradientTransform="translate(22.642865,0)"/>
    <linearGradient inkscape:collect="always" xlink:href="#linearGradient10080" id="linearGradient10094" gradientUnits="userSpaceOnUse" gradientTransform="translate(45.285748,0)" x1="578.39288" y1="207.71933" x2="571.59778" y2="207.71933"/>
    <linearGradient inkscape:collect="always" xlink:href="#linearGradient10080" id="linearGradient10098" gradientUnits="userSpaceOnUse" gradientTransform="translate(67.928587,0)" x1="578.39288" y1="207.71933" x2="571.59778" y2="207.71933"/>
    <linearGradient inkscape:collect="always" xlink:href="#linearGradient10080" id="linearGradient10102" gradientUnits="userSpaceOnUse" gradientTransform="translate(90.571444,0)" x1="578.39288" y1="207.71933" x2="571.59778" y2="207.71933"/>
    <linearGradient inkscape:collect="always" xlink:href="#linearGradient10080" id="linearGradient10111" gradientUnits="userSpaceOnUse" x1="578.39288" y1="207.71933" x2="571.59778" y2="207.71933"/>
    <linearGradient inkscape:collect="always" xlink:href="#linearGradient10080" id="linearGradient10113" gradientUnits="userSpaceOnUse" gradientTransform="translate(22.642865,0)" x1="578.39288" y1="207.71933" x2="571.59778" y2="207.71933"/>
    <linearGradient inkscape:collect="always" xlink:href="#linearGradient10080" id="linearGradient10115" gradientUnits="userSpaceOnUse" gradientTransform="translate(45.285748,0)" x1="578.39288" y1="207.71933" x2="571.59778" y2="207.71933"/>
    <linearGradient inkscape:collect="always" xlink:href="#linearGradient10080" id="linearGradient10117" gradientUnits="userSpaceOnUse" gradientTransform="translate(67.928587,0)" x1="578.39288" y1="207.71933" x2="571.59778" y2="207.71933"/>
    <linearGradient inkscape:collect="always" xlink:href="#linearGradient10080" id="linearGradient10119" gradientUnits="userSpaceOnUse" gradientTransform="translate(90.571444,0)" x1="578.39288" y1="207.71933" x2="571.59778" y2="207.71933"/>
    <linearGradient inkscape:collect="always" xlink:href="#linearGradient10080" id="linearGradient10122" gradientUnits="userSpaceOnUse" gradientTransform="translate(42.787363,0)" x1="578.39288" y1="207.71933" x2="571.59778" y2="207.71933"/>
    <linearGradient inkscape:collect="always" xlink:href="#linearGradient10080" id="linearGradient10125" gradientUnits="userSpaceOnUse" gradientTransform="translate(20.144506,0)" x1="578.39288" y1="207.71933" x2="571.59778" y2="207.71933"/>
    <linearGradient inkscape:collect="always" xlink:href="#linearGradient10080" id="linearGradient10128" gradientUnits="userSpaceOnUse" gradientTransform="translate(-2.498333,0)" x1="578.39288" y1="207.71933" x2="571.59778" y2="207.71933"/>
    <linearGradient inkscape:collect="always" xlink:href="#linearGradient10080" id="linearGradient10131" gradientUnits="userSpaceOnUse" gradientTransform="translate(-25.141216,0)" x1="578.39288" y1="207.71933" x2="571.59778" y2="207.71933"/>
    <linearGradient inkscape:collect="always" xlink:href="#linearGradient10080" id="linearGradient10134" gradientUnits="userSpaceOnUse" x1="578.39288" y1="207.71933" x2="571.59778" y2="207.71933" gradientTransform="translate(-47.784081,0)"/>
    <linearGradient inkscape:collect="always" xlink:href="#linearGradient10080" id="linearGradient10138" gradientUnits="userSpaceOnUse" gradientTransform="translate(65.430246,0)" x1="578.39288" y1="207.71933" x2="571.59778" y2="207.71933"/>
    <linearGradient inkscape:collect="always" xlink:href="#linearGradient10080" id="linearGradient10142" gradientUnits="userSpaceOnUse" gradientTransform="translate(88.073094,0)" x1="578.39288" y1="207.71933" x2="571.59778" y2="207.71933"/>
    <linearGradient inkscape:collect="always" xlink:href="#linearGradient10080" id="linearGradient10169" gradientUnits="userSpaceOnUse" gradientTransform="translate(-47.784081,0)" x1="578.39288" y1="207.71933" x2="571.59778" y2="207.71933"/>
    <linearGradient inkscape:collect="always" xlink:href="#linearGradient10080" id="linearGradient10171" gradientUnits="userSpaceOnUse" gradientTransform="translate(-25.141216,0)" x1="578.39288" y1="207.71933" x2="571.59778" y2="207.71933"/>
    <linearGradient inkscape:collect="always" xlink:href="#linearGradient10080" id="linearGradient10173" gradientUnits="userSpaceOnUse" gradientTransform="translate(-2.498333,0)" x1="578.39288" y1="207.71933" x2="571.59778" y2="207.71933"/>
    <linearGradient inkscape:collect="always" xlink:href="#linearGradient10080" id="linearGradient10175" gradientUnits="userSpaceOnUse" gradientTransform="translate(20.144506,0)" x1="578.39288" y1="207.71933" x2="571.59778" y2="207.71933"/>
    <linearGradient inkscape:collect="always" xlink:href="#linearGradient10080" id="linearGradient10177" gradientUnits="userSpaceOnUse" gradientTransform="translate(42.787363,0)" x1="578.39288" y1="207.71933" x2="571.59778" y2="207.71933"/>
    <linearGradient inkscape:collect="always" xlink:href="#linearGradient10080" id="linearGradient10179" gradientUnits="userSpaceOnUse" gradientTransform="translate(65.430246,0)" x1="578.39288" y1="207.71933" x2="571.59778" y2="207.71933"/>
    <linearGradient inkscape:collect="always" xlink:href="#linearGradient10080" id="linearGradient10181" gradientUnits="userSpaceOnUse" gradientTransform="translate(88.073094,0)" x1="578.39288" y1="207.71933" x2="571.59778" y2="207.71933"/>
    <linearGradient inkscape:collect="always" xlink:href="#linearGradient10080" id="linearGradient10183" gradientUnits="userSpaceOnUse" gradientTransform="translate(-47.784081,0)" x1="578.39288" y1="207.71933" x2="571.59778" y2="207.71933"/>
    <linearGradient inkscape:collect="always" xlink:href="#linearGradient10080" id="linearGradient10185" gradientUnits="userSpaceOnUse" gradientTransform="translate(-25.141216,0)" x1="578.39288" y1="207.71933" x2="571.59778" y2="207.71933"/>
    <linearGradient inkscape:collect="always" xlink:href="#linearGradient10080" id="linearGradient10187" gradientUnits="userSpaceOnUse" gradientTransform="translate(-2.498333,0)" x1="578.39288" y1="207.71933" x2="571.59778" y2="207.71933"/>
    <linearGradient inkscape:collect="always" xlink:href="#linearGradient10080" id="linearGradient10189" gradientUnits="userSpaceOnUse" gradientTransform="translate(20.144506,0)" x1="578.39288" y1="207.71933" x2="571.59778" y2="207.71933"/>
    <linearGradient inkscape:collect="always" xlink:href="#linearGradient10080" id="linearGradient10191" gradientUnits="userSpaceOnUse" gradientTransform="translate(42.787363,0)" x1="578.39288" y1="207.71933" x2="571.59778" y2="207.71933"/>
    <linearGradient inkscape:collect="always" xlink:href="#linearGradient10080" id="linearGradient10193" gradientUnits="userSpaceOnUse" gradientTransform="translate(65.430246,0)" x1="578.39288" y1="207.71933" x2="571.59778" y2="207.71933"/>
    <linearGradient inkscape:collect="always" xlink:href="#linearGradient10080" id="linearGradient10195" gradientUnits="userSpaceOnUse" gradientTransform="translate(88.073094,0)" x1="578.39288" y1="207.71933" x2="571.59778" y2="207.71933"/>
  </defs>
  <sodipodi:namedview id="base" pagecolor="#ffffff" bordercolor="#666666" borderopacity="1.0" inkscape:pageopacity="0.0" inkscape:pageshadow="2" inkscape:zoom="0.7" inkscape:cx="400.67964" inkscape:cy="91.472753" inkscape:document-units="px" inkscape:current-layer="layer1" showgrid="false" inkscape:window-width="1366" inkscape:window-height="706" inkscape:window-x="-8" inkscape:window-y="-8" inkscape:window-maximized="1" showguides="true" inkscape:guide-bbox="true" fit-margin-top="2" fit-margin-left="2" fit-margin-right="2" fit-margin-bottom="2"/>
  <g inkscape:label="Layer 1" inkscape:groupmode="layer" id="layer1" transform="translate(-39.08392,-125.13674)">
    <g id="g9964">
      <path inkscape:connector-curvature="0" id="path9657" d="m 99.752564,321.01174 6.565996,15.40483 152.28049,0 7.07107,-14.89975" style="fill:url(#linearGradient9755);fill-opacity:1;stroke:#000000;stroke-width:1px;stroke-linecap:butt;stroke-linejoin:miter;stroke-opacity:1"/>
      <path inkscape:connector-curvature="0" id="path9659" d="m 108.01086,321.35885 c -2.44694,0.0497 -4.9085,-0.0254 -7.34728,0.14205 -0.0441,1.2995 1.05297,2.58371 1.4013,3.87433 1.55649,3.51029 2.88644,7.20233 4.62805,10.58348 4.64169,0.31924 9.30874,0.12659 13.96062,0.18151 0.55166,-1.66102 0.36731,-3.68388 0.8681,-5.45325 0.58905,-3.12038 1.59376,-6.20095 3.15673,-8.97299 -0.58262,-0.74458 -2.09516,-0.0855 -2.9831,-0.32768 -4.56134,-0.039 -9.12295,-0.0439 -13.68442,-0.0274 z" style="fill:url(#linearGradient9745);fill-opacity:1;stroke:#000000;stroke-width:0.5;stroke-linejoin:round;stroke-miterlimit:4;stroke-opacity:1;stroke-dasharray:none;stroke-dashoffset:0"/>
      <path inkscape:connector-curvature="0" id="path9661" d="m 180.44195,321.36674 c -1.23397,0.0468 -2.49125,-0.0221 -3.70915,0.18151 0.0279,1.1846 1.10693,2.38804 1.41614,3.62142 1.40959,3.42607 2.0222,7.10042 2.26934,10.78904 1.4121,0.43958 3.14825,0.0483 4.67985,0.18151 0.39174,-1.34705 0.12603,-3.02027 0.52086,-4.47466 0.54755,-3.57394 1.94837,-6.9551 3.40926,-10.21201 -2.79123,-0.23275 -5.74113,-0.0526 -8.5863,-0.0868 z" style="fill:url(#linearGradient9743);fill-opacity:1;stroke:#000000;stroke-width:0.5;stroke-linejoin:round;stroke-miterlimit:4;stroke-opacity:1;stroke-dasharray:none;stroke-dashoffset:0"/>
      <path inkscape:connector-curvature="0" id="path9663" d="m 248.42206,321.35885 c -2.44669,0.0527 -4.91038,-0.0309 -7.34728,0.14205 -0.11551,1.16871 1.06879,2.24044 1.31608,3.41525 1.38044,3.44165 2.09242,7.11426 2.23524,10.81369 0.61146,0.71377 1.95537,0.12927 2.80153,0.35526 3.64086,-0.0394 7.3652,0.10322 10.95391,-0.18164 2.22916,-4.69372 4.5401,-9.35926 6.68437,-14.08689 -0.35003,-0.74837 -1.74591,-0.14878 -2.4543,-0.38432 -4.72902,-0.0982 -9.45976,-0.0872 -14.18955,-0.0734 z" style="fill:url(#linearGradient9741);fill-opacity:1;stroke:#000000;stroke-width:0.5;stroke-linejoin:round;stroke-miterlimit:4;stroke-opacity:1;stroke-dasharray:none;stroke-dashoffset:0"/>
    </g>
    <path style="fill:url(#linearGradient9765);fill-opacity:1;stroke:#000000;stroke-width:1px;stroke-linecap:butt;stroke-linejoin:miter;stroke-opacity:1" d="m 510.36705,321.04812 9.99009,15.28727 65.35714,0 78.75001,0 8.77166,-15.46585" id="path9757" inkscape:connector-curvature="0" sodipodi:nodetypes="ccccc"/>
    <g id="g9928">
      <path transform="matrix(0.3146996,-0.44176001,0.44176001,0.3146996,-17.227507,374.26268)" d="m 290.71429,211.29076 c 0,29.78392 -24.14464,53.92857 -53.92857,53.92857 -29.78393,0 -53.92857,-24.14465 -53.92857,-53.92857 0,-29.78393 24.14464,-53.92857 53.92857,-53.92857 29.78393,0 53.92857,24.14464 53.92857,53.92857 z" sodipodi:ry="53.92857" sodipodi:rx="53.92857" sodipodi:cy="211.29076" sodipodi:cx="236.78572" id="path8648" style="fill:#ffffff;fill-opacity:1;stroke:#000000;stroke-width:2;stroke-linejoin:round;stroke-miterlimit:4;stroke-opacity:1;stroke-dasharray:none;stroke-dashoffset:0" sodipodi:type="arc"/>
      <path transform="matrix(0.28605334,-0.40154778,0.40154778,0.28605334,-1.948008,370.79369)" sodipodi:type="arc" style="fill:#ffffff;fill-opacity:1;stroke:#000000;stroke-width:2;stroke-linejoin:round;stroke-miterlimit:4;stroke-opacity:1;stroke-dasharray:none;stroke-dashoffset:0" id="path9158" sodipodi:cx="236.78572" sodipodi:cy="211.29076" sodipodi:rx="53.92857" sodipodi:ry="53.92857" d="m 290.71429,211.29076 c 0,29.78392 -24.14464,53.92857 -53.92857,53.92857 -29.78393,0 -53.92857,-24.14465 -53.92857,-53.92857 0,-29.78393 24.14464,-53.92857 53.92857,-53.92857 29.78393,0 53.92857,24.14464 53.92857,53.92857 z"/>
      <path d="m 290.71429,211.29076 c 0,29.78392 -24.14464,53.92857 -53.92857,53.92857 -29.78393,0 -53.92857,-24.14465 -53.92857,-53.92857 0,-29.78393 24.14464,-53.92857 53.92857,-53.92857 29.78393,0 53.92857,24.14464 53.92857,53.92857 z" sodipodi:ry="53.92857" sodipodi:rx="53.92857" sodipodi:cy="211.29076" sodipodi:cx="236.78572" id="path9160" style="fill:#ffffff;fill-opacity:1;stroke:#000000;stroke-width:2;stroke-linejoin:round;stroke-miterlimit:4;stroke-opacity:1;stroke-dasharray:none;stroke-dashoffset:0" sodipodi:type="arc" transform="matrix(0.16737599,-0.23495427,0.23495427,0.16737599,61.352764,356.42215)"/>
      <path transform="matrix(0.05900261,-0.082825,0.082825,0.05900261,119.15754,343.2984)" sodipodi:type="arc" style="fill:#1a1a1a;fill-opacity:1;stroke:#501616;stroke-width:5.67351151;stroke-linejoin:round;stroke-miterlimit:4;stroke-opacity:1;stroke-dasharray:none;stroke-dashoffset:0" id="path9162" sodipodi:cx="236.78572" sodipodi:cy="211.29076" sodipodi:rx="53.92857" sodipodi:ry="53.92857" d="m 290.71429,211.29076 c 0,29.78392 -24.14464,53.92857 -53.92857,53.92857 -29.78393,0 -53.92857,-24.14465 -53.92857,-53.92857 0,-29.78393 24.14464,-53.92857 53.92857,-53.92857 29.78393,0 53.92857,24.14464 53.92857,53.92857 z"/>
      <path inkscape:connector-curvature="0" id="path9182" d="m 127.02607,319.81257 c -5.46236,7.55991 -6.56983,17.86973 -3.2486,26.5182 3.10196,8.4724 10.48841,15.2108 19.21486,17.53984 9.79324,2.71616 20.94807,-0.15131 28.0453,-7.47598 2.06085,-2.04137 3.72418,-4.47155 5.11417,-7.00781 4.03822,-7.70233 4.22187,-17.20528 0.64596,-25.09844 -3.11876,-7.19374 -9.51833,-12.73388 -16.85411,-15.34332 -7.91303,-2.71885 -16.99634,-1.77809 -24.1301,2.61179 -3.45912,2.09321 -6.54768,4.86977 -8.78748,8.25572 z m 1.77946,0.45304 c 4.36189,-6.03078 11.29276,-10.12405 18.67722,-10.90661 7.85503,-1.00258 16.08136,1.76406 21.79237,7.28868 7.51367,7.00792 10.3016,18.41641 6.94004,28.11096 -1.91191,5.71556 -5.7946,10.76784 -10.87093,14.02864 -7.33909,4.77484 -16.99437,5.73264 -25.08932,2.29191 -8.95073,-3.62522 -15.57126,-12.45321 -16.42841,-22.03511 -0.7919,-6.57081 1.05516,-13.42884 4.97903,-18.77847 z" style="fill:#333333;fill-opacity:1;stroke:none"/>
      <path inkscape:connector-curvature="0" id="path9184" d="m 129.02948,321.471 c -5.28939,7.65139 -6.01347,18.17947 -1.71659,26.43217 4.22726,8.57684 13.50211,14.40867 23.07735,14.36632 7.98434,0.11799 15.95428,-3.69347 20.8068,-10.06032 2.37475,-3.06588 4.1371,-6.60857 4.92619,-10.41514 2.12442,-9.25368 -1.25386,-19.58026 -8.67867,-25.57878 -4.63306,-3.91392 -10.61427,-6.22826 -16.69683,-6.18432 -8.55836,-0.0785 -16.92529,4.30935 -21.71825,11.44007 z m 8.67821,5.6566 c 3.13092,-4.59704 8.80485,-7.21042 14.30902,-6.6638 5.0287,0.36752 9.74895,3.46444 12.26733,7.80102 3.36746,5.71791 2.61417,13.48602 -1.88746,18.3931 -4.17378,4.73651 -11.29285,6.55345 -17.19907,4.2915 -4.58167,-1.66103 -8.28844,-5.56473 -9.66355,-10.25022 -1.40898,-4.52141 -0.57358,-9.6652 2.17373,-13.5716 z" style="fill:#666666;fill-opacity:1;stroke:none"/>
      <path d="m 290.71429,211.29076 c 0,29.78392 -24.14464,53.92857 -53.92857,53.92857 -29.78393,0 -53.92857,-24.14465 -53.92857,-53.92857 0,-29.78393 24.14464,-53.92857 53.92857,-53.92857 29.78393,0 53.92857,24.14464 53.92857,53.92857 z" sodipodi:ry="53.92857" sodipodi:rx="53.92857" sodipodi:cy="211.29076" sodipodi:cx="236.78572" id="path9186" style="fill:url(#linearGradient9753);fill-opacity:1;stroke:none" sodipodi:type="arc" transform="matrix(0.01921315,-0.02697048,0.02697048,0.01921315,131.902,332.44)"/>
      <path transform="matrix(0.01921315,-0.02697048,0.02697048,0.01921315,148.63619,344.36104)" sodipodi:type="arc" style="fill:none;stroke:none" id="path9188" sodipodi:cx="236.78572" sodipodi:cy="211.29076" sodipodi:rx="53.92857" sodipodi:ry="53.92857" d="m 290.71429,211.29076 c 0,29.78392 -24.14464,53.92857 -53.92857,53.92857 -29.78393,0 -53.92857,-24.14465 -53.92857,-53.92857 0,-29.78393 24.14464,-53.92857 53.92857,-53.92857 29.78393,0 53.92857,24.14464 53.92857,53.92857 z"/>
      <path transform="matrix(0.02697048,0.01921315,-0.01921315,0.02697048,154.15097,317.45874)" sodipodi:type="arc" style="fill:url(#linearGradient9751);fill-opacity:1;stroke:none" id="path9190" sodipodi:cx="236.78572" sodipodi:cy="211.29076" sodipodi:rx="53.92857" sodipodi:ry="53.92857" d="m 290.71429,211.29076 c 0,29.78392 -24.14464,53.92857 -53.92857,53.92857 -29.78393,0 -53.92857,-24.14465 -53.92857,-53.92857 0,-29.78393 24.14464,-53.92857 53.92857,-53.92857 29.78393,0 53.92857,24.14464 53.92857,53.92857 z"/>
      <path d="m 290.71429,211.29076 c 0,29.78392 -24.14464,53.92857 -53.92857,53.92857 -29.78393,0 -53.92857,-24.14465 -53.92857,-53.92857 0,-29.78393 24.14464,-53.92857 53.92857,-53.92857 29.78393,0 53.92857,24.14464 53.92857,53.92857 z" sodipodi:ry="53.92857" sodipodi:rx="53.92857" sodipodi:cy="211.29076" sodipodi:cx="236.78572" id="path9192" style="fill:none;stroke:none" sodipodi:type="arc" transform="matrix(0.02697048,0.01921315,-0.01921315,0.02697048,142.22992,334.19293)"/>
      <path inkscape:connector-curvature="0" id="path9202" d="m 138.07723,327.39085 c -3.52083,4.99138 -3.65785,12.08391 -0.24898,17.15532 1.85676,2.85215 4.75862,5.00917 7.95679,6.13073 6.10481,2.09832 13.39802,-0.17886 17.15258,-5.44995 2.94735,-3.91383 3.77289,-9.21857 2.21005,-13.85 -0.99109,-3.06717 -2.93768,-5.87062 -5.70739,-7.5928 -3.16933,-2.56231 -7.49346,-3.37926 -11.44503,-2.68745 -3.95387,0.69205 -7.63073,2.97064 -9.91802,6.29415 z m 2.72404,1.7461 c 0.49303,-0.82216 1.76108,-0.85505 2.4696,-0.35343 0.63606,0.73141 0.83043,1.9865 -0.0709,2.59303 -0.86637,0.80563 -2.50896,0.4085 -2.66618,-0.85347 -0.0862,-0.46608 7.8e-4,-0.97858 0.26744,-1.38613 z m 5.019,4.15352 c 0.65737,-1.10389 1.55089,-2.05433 2.80283,-2.44424 2.86068,-1.15034 6.45695,0.49518 7.37026,3.47929 0.64767,1.82165 0.28633,3.93176 -1.0147,5.41559 -1.45725,1.98672 -4.45395,2.64576 -6.66094,1.58749 -3.00144,-1.21154 -4.39281,-5.37744 -2.49745,-8.03813 z m -2.61243,10.17409 c 0.49302,-0.82216 1.76107,-0.85505 2.4696,-0.35343 0.63606,0.73141 0.83044,1.98651 -0.0709,2.59304 -0.86637,0.80563 -2.50896,0.4085 -2.66618,-0.85348 -0.0862,-0.46607 7.8e-4,-0.97857 0.26744,-1.38613 z m 11.92104,-16.73418 c 0.49303,-0.82217 1.76108,-0.85505 2.46961,-0.35343 0.63606,0.73141 0.83043,1.9865 -0.0709,2.59304 -0.86637,0.80563 -2.50896,0.4085 -2.66618,-0.85349 -0.0862,-0.46607 7.8e-4,-0.97856 0.26744,-1.38612 z m 2.40658,14.32761 c 0.49302,-0.82216 1.76107,-0.85504 2.4696,-0.35342 0.63606,0.73141 0.83043,1.9865 -0.0709,2.59303 -0.86637,0.80564 -2.50896,0.4085 -2.66619,-0.85347 -0.0862,-0.46607 8e-4,-0.97858 0.26745,-1.38614 z" style="fill:#333333;fill-opacity:1;stroke:none"/>
      <path transform="matrix(0.4209612,0,0,0.36781938,50.220587,266.19845)" sodipodi:nodetypes="cssacssaaac" inkscape:connector-curvature="0" id="path9204" d="m 263.77519,245.07463 c -11.30349,1.83078 -11.07665,2.01255 -23.36427,1.97713 -13.27181,-0.0383 -13.35547,-0.0516 -26.93696,-7.32812 -7.91786,-4.24211 -14.48716,-11.47938 -20.44447,-18.80241 -3.22348,-3.96247 -3.58136,-4.49064 -8.07778,-13.35421 1.73161,10.0043 1.83972,10.09612 3.666,13.79874 2.64646,5.36546 3.07923,5.94391 7.69527,12.48842 3.67734,5.21366 8.21892,9.67271 13.23043,13.07452 5.71819,3.8815 12.11517,6.78755 18.67749,8.00729 6.99553,1.30026 14.41499,1.2692 21.24745,-0.88586 5.24297,-1.65371 5.37388,-1.68713 14.30684,-8.9755 z" style="fill:url(#linearGradient9673);fill-opacity:1;stroke:none;filter:url(#filter9251)"/>
      <path sodipodi:type="arc" style="fill:#ffffff;fill-opacity:1;stroke:#000000;stroke-width:2;stroke-linejoin:round;stroke-miterlimit:4;stroke-opacity:1;stroke-dasharray:none;stroke-dashoffset:0" id="path9271" sodipodi:cx="236.78572" sodipodi:cy="211.29076" sodipodi:rx="53.92857" sodipodi:ry="53.92857" d="m 290.71429,211.29076 c 0,29.78392 -24.14464,53.92857 -53.92857,53.92857 -29.78393,0 -53.92857,-24.14465 -53.92857,-53.92857 0,-29.78393 24.14464,-53.92857 53.92857,-53.92857 29.78393,0 53.92857,24.14464 53.92857,53.92857 z" transform="matrix(0.52390925,0.14038106,-0.14038106,0.52390925,120.54771,192.21592)"/>
      <path d="m 290.71429,211.29076 c 0,29.78392 -24.14464,53.92857 -53.92857,53.92857 -29.78393,0 -53.92857,-24.14465 -53.92857,-53.92857 0,-29.78393 24.14464,-53.92857 53.92857,-53.92857 29.78393,0 53.92857,24.14464 53.92857,53.92857 z" sodipodi:ry="53.92857" sodipodi:rx="53.92857" sodipodi:cy="211.29076" sodipodi:cx="236.78572" id="path9273" style="fill:#ffffff;fill-opacity:1;stroke:#000000;stroke-width:2;stroke-linejoin:round;stroke-miterlimit:4;stroke-opacity:1;stroke-dasharray:none;stroke-dashoffset:0" sodipodi:type="arc" transform="matrix(0.4762192,0.12760255,-0.12760255,0.4762192,129.14006,205.31816)"/>
      <path transform="matrix(0.27864613,0.07466301,-0.07466301,0.27864613,164.73691,259.59885)" sodipodi:type="arc" style="fill:#ffffff;fill-opacity:1;stroke:#000000;stroke-width:2;stroke-linejoin:round;stroke-miterlimit:4;stroke-opacity:1;stroke-dasharray:none;stroke-dashoffset:0" id="path9275" sodipodi:cx="236.78572" sodipodi:cy="211.29076" sodipodi:rx="53.92857" sodipodi:ry="53.92857" d="m 290.71429,211.29076 c 0,29.78392 -24.14464,53.92857 -53.92857,53.92857 -29.78393,0 -53.92857,-24.14465 -53.92857,-53.92857 0,-29.78393 24.14464,-53.92857 53.92857,-53.92857 29.78393,0 53.92857,24.14464 53.92857,53.92857 z"/>
      <path d="m 290.71429,211.29076 c 0,29.78392 -24.14464,53.92857 -53.92857,53.92857 -29.78393,0 -53.92857,-24.14465 -53.92857,-53.92857 0,-29.78393 24.14464,-53.92857 53.92857,-53.92857 29.78393,0 53.92857,24.14464 53.92857,53.92857 z" sodipodi:ry="53.92857" sodipodi:rx="53.92857" sodipodi:cy="211.29076" sodipodi:cx="236.78572" id="path9277" style="fill:#1a1a1a;fill-opacity:1;stroke:#501616;stroke-width:5.67351151;stroke-linejoin:round;stroke-miterlimit:4;stroke-opacity:1;stroke-dasharray:none;stroke-dashoffset:0" sodipodi:type="arc" transform="matrix(0.09822705,0.02631986,-0.02631986,0.09822705,197.24311,309.1667)"/>
      <path style="fill:#333333;fill-opacity:1;stroke:none" d="m 221.99776,308.32707 c -8.99261,-2.47438 -19.03894,0.0928 -25.98033,6.22821 -6.85311,5.86845 -10.58363,15.14471 -9.71455,24.1347 0.87935,10.12481 7.466,19.57302 16.80984,23.66132 2.63308,1.21705 5.49143,1.92571 8.35362,2.34119 8.62811,1.09033 17.59549,-2.06022 23.74018,-8.17018 5.64928,-5.43712 8.60222,-13.36982 8.4821,-21.15496 -0.21945,-8.36422 -4.27671,-16.5453 -10.88376,-21.69395 -3.17054,-2.50893 -6.85174,-4.43177 -10.8071,-5.34633 z m 0.19771,1.82553 c 7.17524,1.978 13.43347,7.04028 16.74852,13.68505 3.68573,7.0087 3.96994,15.68316 0.7908,22.96534 -3.93855,9.48967 -13.65222,16.09048 -23.91022,16.33068 -6.02331,0.20713 -12.11426,-1.66403 -16.94413,-5.27987 -7.03949,-5.20641 -11.31271,-13.9174 -10.91943,-22.70446 0.26689,-9.65332 6.22291,-18.94259 14.90034,-23.09584 5.87922,-3.03933 12.95021,-3.70668 19.33412,-1.9009 z" id="path9279" inkscape:connector-curvature="0"/>
      <path style="fill:#666666;fill-opacity:1;stroke:none" d="m 221.14447,310.78388 c -9.01784,-2.28033 -19.13461,0.72231 -25.36408,7.63345 -6.5575,6.95925 -8.77841,17.68773 -5.39087,26.64383 2.6811,7.52166 9.03859,13.65594 16.70022,15.97609 3.70267,1.15293 7.63796,1.56539 11.48017,0.97375 9.41242,-1.24511 17.90606,-8.02073 20.92998,-17.07423 2.04699,-5.70911 2.124,-12.12199 -0.0438,-17.80528 -2.91876,-8.04566 -9.95509,-14.35033 -18.31157,-16.34761 z m -2.26535,10.10824 c 5.40158,1.32601 9.83384,5.72809 11.24619,11.07598 1.41392,4.83981 0.16282,10.34495 -3.01951,14.22061 -4.17963,5.15413 -11.72084,7.16441 -17.89216,4.6626 -5.89687,-2.25429 -10.08824,-8.28877 -10.03409,-14.61307 -0.0457,-4.87326 2.31556,-9.71095 6.22454,-12.63751 3.74339,-2.90091 8.85462,-3.9167 13.47503,-2.70861 z" id="path9281" inkscape:connector-curvature="0"/>
      <path transform="matrix(0.03198589,0.0085706,-0.0085706,0.03198589,211.87213,317.31028)" sodipodi:type="arc" style="fill:url(#linearGradient9749);fill-opacity:1;stroke:none" id="path9283" sodipodi:cx="236.78572" sodipodi:cy="211.29076" sodipodi:rx="53.92857" sodipodi:ry="53.92857" d="m 290.71429,211.29076 c 0,29.78392 -24.14464,53.92857 -53.92857,53.92857 -29.78393,0 -53.92857,-24.14465 -53.92857,-53.92857 0,-29.78393 24.14464,-53.92857 53.92857,-53.92857 29.78393,0 53.92857,24.14464 53.92857,53.92857 z"/>
      <path d="m 290.71429,211.29076 c 0,29.78392 -24.14464,53.92857 -53.92857,53.92857 -29.78393,0 -53.92857,-24.14465 -53.92857,-53.92857 0,-29.78393 24.14464,-53.92857 53.92857,-53.92857 29.78393,0 53.92857,24.14464 53.92857,53.92857 z" sodipodi:ry="53.92857" sodipodi:rx="53.92857" sodipodi:cy="211.29076" sodipodi:cx="236.78572" id="path9285" style="fill:none;stroke:none" sodipodi:type="arc" transform="matrix(0.03198589,0.0085706,-0.0085706,0.03198589,206.55439,337.15634)"/>
      <path d="m 290.71429,211.29076 c 0,29.78392 -24.14464,53.92857 -53.92857,53.92857 -29.78393,0 -53.92857,-24.14465 -53.92857,-53.92857 0,-29.78393 24.14464,-53.92857 53.92857,-53.92857 29.78393,0 53.92857,24.14464 53.92857,53.92857 z" sodipodi:ry="53.92857" sodipodi:rx="53.92857" sodipodi:cy="211.29076" sodipodi:cx="236.78572" id="path9287" style="fill:none;stroke:none" sodipodi:type="arc" transform="matrix(-0.0085706,0.03198589,-0.03198589,-0.0085706,233.68693,332.91697)"/>
      <path transform="matrix(-0.0085706,0.03198589,-0.03198589,-0.0085706,213.84086,327.59924)" sodipodi:type="arc" style="fill:url(#linearGradient9747);fill-opacity:1;stroke:none" id="path9289" sodipodi:cx="236.78572" sodipodi:cy="211.29076" sodipodi:rx="53.92857" sodipodi:ry="53.92857" d="m 290.71429,211.29076 c 0,29.78392 -24.14464,53.92857 -53.92857,53.92857 -29.78393,0 -53.92857,-24.14465 -53.92857,-53.92857 0,-29.78393 24.14464,-53.92857 53.92857,-53.92857 29.78393,0 53.92857,24.14464 53.92857,53.92857 z"/>
      <path style="fill:#333333;fill-opacity:1;stroke:none" d="m 218.76169,321.33038 c -5.90736,-1.55344 -12.60016,0.79801 -16.1596,5.76489 -2.02295,2.73679 -3.02922,6.20968 -2.96179,9.59813 0.16858,6.45316 4.85202,12.48987 11.10316,14.16449 4.69733,1.3929 9.9559,0.31159 13.74858,-2.77193 2.52706,-2.00094 4.47296,-4.80487 5.11806,-8.0019 1.29246,-3.86518 0.54597,-8.20203 -1.4838,-11.66232 -2.03078,-3.46234 -5.45114,-6.11047 -9.36461,-7.09136 z m -0.68345,3.16261 c 0.94264,0.17445 1.41681,1.35097 1.19459,2.19016 -0.46287,0.85165 -1.57079,1.47258 -2.45417,0.84024 -1.05769,-0.53001 -1.25994,-2.20778 -0.13258,-2.79631 0.40651,-0.24375 0.91708,-0.34142 1.39216,-0.23409 z m -2.13654,6.15446 c 1.26406,0.22991 2.46692,0.73473 3.26995,1.77132 2.07793,2.27793 1.79367,6.22256 -0.68278,8.12158 -1.48022,1.24371 -3.58349,1.64295 -5.42856,0.94284 -2.37083,-0.67064 -4.03605,-3.24778 -3.81622,-5.68548 0.0857,-3.23561 3.50216,-5.99571 6.65761,-5.15026 z m -10.44536,1.1097 c 0.94265,0.17445 1.41682,1.35097 1.19459,2.19017 -0.46286,0.85164 -1.57078,1.47257 -2.45415,0.84024 -1.0577,-0.53001 -1.25995,-2.20778 -0.1326,-2.79632 0.40651,-0.24375 0.91709,-0.34141 1.39216,-0.23409 z m 19.84606,5.31774 c 0.94265,0.17444 1.41681,1.35096 1.19459,2.19016 -0.46287,0.85164 -1.57078,1.47258 -2.45416,0.84024 -1.0577,-0.53001 -1.25995,-2.20778 -0.13258,-2.79631 0.40651,-0.24375 0.91708,-0.34142 1.39215,-0.23409 z m -12.5819,7.26416 c 0.94265,0.17445 1.41682,1.35097 1.19459,2.19017 -0.46286,0.85163 -1.57078,1.47257 -2.45416,0.84022 -1.05769,-0.53 -1.25994,-2.20777 -0.13258,-2.79631 0.4065,-0.24374 0.91708,-0.34141 1.39215,-0.23408 z" id="path9291" inkscape:connector-curvature="0"/>
      <path style="fill:url(#linearGradient9675);fill-opacity:1;stroke:none;filter:url(#filter9251)" d="m 263.77519,245.07463 c -11.30349,1.83078 -11.07665,2.01255 -23.36427,1.97713 -13.27181,-0.0383 -13.35547,-0.0516 -26.93696,-7.32812 -7.91786,-4.24211 -14.48716,-11.47938 -20.44447,-18.80241 -3.22348,-3.96247 -3.58136,-4.49064 -8.07778,-13.35421 1.73161,10.0043 1.83972,10.09612 3.666,13.79874 2.64646,5.36546 3.07923,5.94391 7.69527,12.48842 3.67734,5.21366 8.21892,9.67271 13.23043,13.07452 5.71819,3.8815 12.11517,6.78755 18.67749,8.00729 6.99553,1.30026 14.41499,1.2692 21.24745,-0.88586 5.24297,-1.65371 5.37388,-1.68713 14.30684,-8.9755 z" id="path9293" inkscape:connector-curvature="0" sodipodi:nodetypes="cssacssaaac" transform="matrix(0.4209612,0,0,0.36781938,113.91181,266.19845)"/>
      <path d="m 290.71429,211.29076 c 0,29.78392 -24.14464,53.92857 -53.92857,53.92857 -29.78393,0 -53.92857,-24.14465 -53.92857,-53.92857 0,-29.78393 24.14464,-53.92857 53.92857,-53.92857 29.78393,0 53.92857,24.14464 53.92857,53.92857 z" sodipodi:ry="53.92857" sodipodi:rx="53.92857" sodipodi:cy="211.29076" sodipodi:cx="236.78572" id="path9533" style="fill:#000000;fill-opacity:1;stroke:#501616;stroke-width:5.67351151;stroke-linejoin:round;stroke-miterlimit:4;stroke-opacity:1;stroke-dasharray:none;stroke-dashoffset:0" sodipodi:type="arc" transform="matrix(0.0261513,-0.03670992,0.03670992,0.0261513,136.67995,339.32019)"/>
      <path transform="matrix(0.0261513,-0.03670992,0.03670992,0.0261513,200.99201,339.32019)" sodipodi:type="arc" style="fill:#000000;fill-opacity:1;stroke:#501616;stroke-width:5.67351151;stroke-linejoin:round;stroke-miterlimit:4;stroke-opacity:1;stroke-dasharray:none;stroke-dashoffset:0" id="path9535" sodipodi:cx="236.78572" sodipodi:cy="211.29076" sodipodi:rx="53.92857" sodipodi:ry="53.92857" d="m 290.71429,211.29076 c 0,29.78392 -24.14464,53.92857 -53.92857,53.92857 -29.78393,0 -53.92857,-24.14465 -53.92857,-53.92857 0,-29.78393 24.14464,-53.92857 53.92857,-53.92857 29.78393,0 53.92857,24.14464 53.92857,53.92857 z"/>
      <path inkscape:connector-curvature="0" id="path9665" d="m 142.0225,328.30018 c -0.84251,6.5e-4 -1.53689,0.70243 -1.64348,1.51522 -0.17228,0.85169 0.27419,1.85817 1.17194,2.06569 1.20898,0.42291 2.68688,-0.7497 2.39319,-2.03609 -0.13836,-0.61255 -0.4458,-1.30795 -1.12458,-1.45604 -0.25752,-0.079 -0.52838,-0.10582 -0.79707,-0.0888 z" style="fill:url(#linearGradient9739);fill-opacity:1;stroke:#000000;stroke-width:0.5;stroke-linejoin:round;stroke-miterlimit:4;stroke-opacity:1;stroke-dasharray:none;stroke-dashoffset:0"/>
      <path inkscape:connector-curvature="0" id="path9667" d="m 156.31458,325.91685 c -1.0269,-0.0505 -1.72626,1.03781 -1.64348,1.98282 -0.01,0.81747 0.65608,1.52077 1.45407,1.62571 0.87223,0.16994 1.81475,-0.43517 2.11501,-1.25283 0.18443,-0.71535 -0.0725,-1.53423 -0.59386,-2.04398 -0.38679,-0.2921 -0.86199,-0.33767 -1.33174,-0.31172 z" style="fill:url(#linearGradient9737);fill-opacity:1;stroke:#000000;stroke-width:0.5;stroke-linejoin:round;stroke-miterlimit:4;stroke-opacity:1;stroke-dasharray:none;stroke-dashoffset:0"/>
      <path inkscape:connector-curvature="0" id="path9669" d="m 205.013,331.55752 c -0.94812,0.01 -1.93751,0.82074 -1.82103,1.82893 0.0298,1.20343 1.41689,2.22272 2.54905,1.65926 0.73141,-0.32628 1.39518,-1.11246 1.12853,-1.9552 -0.15825,-0.8786 -0.93458,-1.6033 -1.85655,-1.53299 z" style="fill:url(#linearGradient9735);fill-opacity:1;stroke:#000000;stroke-width:0.5;stroke-linejoin:round;stroke-miterlimit:4;stroke-opacity:1;stroke-dasharray:none;stroke-dashoffset:0"/>
      <path inkscape:connector-curvature="0" id="path9671" d="m 217.65767,324.301 c -0.91533,-0.005 -1.89486,0.6604 -1.89996,1.64347 -0.0701,1.21566 1.22948,2.30143 2.41293,1.9039 0.59191,-0.23258 1.19429,-0.71524 1.31004,-1.37318 0.12716,-1.04836 -0.66497,-2.28459 -1.82301,-2.17419 z" style="fill:url(#linearGradient9733);fill-opacity:1;stroke:#000000;stroke-width:0.5;stroke-linejoin:round;stroke-miterlimit:4;stroke-opacity:1;stroke-dasharray:none;stroke-dashoffset:0"/>
      <path inkscape:connector-curvature="0" id="path9703" d="m 144.55427,342.69475 c -1.13514,-0.13708 -1.97197,1.01636 -1.75593,2.0716 0.0931,1.59233 2.44803,2.00361 3.22381,0.69842 0.66159,-0.96267 0.16079,-2.85877 -1.2035,-2.77002 -0.088,-0.005 -0.17634,-0.005 -0.26438,0 z" style="fill:#ffffff;fill-opacity:1;stroke:#000000;stroke-width:0.5;stroke-linejoin:round;stroke-miterlimit:4;stroke-opacity:1;stroke-dasharray:none;stroke-dashoffset:0"/>
      <path inkscape:connector-curvature="0" id="path9705" d="m 158.76349,340.2759 c -1.51617,-0.0587 -2.15676,2.04987 -1.2035,3.05414 1.05651,1.18444 3.32382,0.1998 3.11726,-1.38502 -0.0611,-1.0025 -0.87792,-1.79995 -1.91376,-1.66912 z" style="fill:#ffffff;fill-opacity:1;stroke:#000000;stroke-width:0.5;stroke-linejoin:round;stroke-miterlimit:4;stroke-opacity:1;stroke-dasharray:none;stroke-dashoffset:0"/>
      <path inkscape:connector-curvature="0" id="path9707" d="m 212.25028,344.17052 c -1.18181,-0.0106 -2.17214,1.32158 -1.61783,2.41489 0.42261,1.00892 1.77333,1.58436 2.69506,0.83653 1.49827,-0.83684 0.62253,-3.45068 -1.07723,-3.25142 z" style="fill:#ffffff;fill-opacity:1;stroke:#000000;stroke-width:0.5;stroke-linejoin:round;stroke-miterlimit:4;stroke-opacity:1;stroke-dasharray:none;stroke-dashoffset:0"/>
      <path inkscape:connector-curvature="0" id="path9709" d="m 224.9048,336.91004 c -1.07283,-0.0381 -2.07617,0.94813 -1.80328,2.04793 0.19843,1.42126 2.16665,2.01215 3.11727,0.94307 1.14857,-1.01319 0.1689,-3.10461 -1.31399,-2.991 z" style="fill:#ffffff;fill-opacity:1;stroke:#000000;stroke-width:0.5;stroke-linejoin:round;stroke-miterlimit:4;stroke-opacity:1;stroke-dasharray:none;stroke-dashoffset:0"/>
    </g>
    <g id="g9982">
      <g transform="translate(11.111678,0)" id="g9565">
        <path transform="matrix(0.46972419,-0.27119538,0.27119538,0.46972419,379.67234,302.13031)" d="m 290.71429,211.29076 c 0,29.78392 -24.14464,53.92857 -53.92857,53.92857 -29.78393,0 -53.92857,-24.14465 -53.92857,-53.92857 0,-29.78393 24.14464,-53.92857 53.92857,-53.92857 29.78393,0 53.92857,24.14464 53.92857,53.92857 z" sodipodi:ry="53.92857" sodipodi:rx="53.92857" sodipodi:cy="211.29076" sodipodi:cx="236.78572" id="path9297" style="fill:#ffffff;fill-opacity:1;stroke:#000000;stroke-width:2;stroke-linejoin:round;stroke-miterlimit:4;stroke-opacity:1;stroke-dasharray:none;stroke-dashoffset:0" sodipodi:type="arc"/>
        <path transform="matrix(0.42696645,-0.24650919,0.24650919,0.42696645,395.01273,305.31928)" sodipodi:type="arc" style="fill:#ffffff;fill-opacity:1;stroke:#000000;stroke-width:2;stroke-linejoin:round;stroke-miterlimit:4;stroke-opacity:1;stroke-dasharray:none;stroke-dashoffset:0" id="path9299" sodipodi:cx="236.78572" sodipodi:cy="211.29076" sodipodi:rx="53.92857" sodipodi:ry="53.92857" d="m 290.71429,211.29076 c 0,29.78392 -24.14464,53.92857 -53.92857,53.92857 -29.78393,0 -53.92857,-24.14465 -53.92857,-53.92857 0,-29.78393 24.14464,-53.92857 53.92857,-53.92857 29.78393,0 53.92857,24.14464 53.92857,53.92857 z"/>
        <path d="m 290.71429,211.29076 c 0,29.78392 -24.14464,53.92857 -53.92857,53.92857 -29.78393,0 -53.92857,-24.14465 -53.92857,-53.92857 0,-29.78393 24.14464,-53.92857 53.92857,-53.92857 29.78393,0 53.92857,24.14464 53.92857,53.92857 z" sodipodi:ry="53.92857" sodipodi:rx="53.92857" sodipodi:cy="211.29076" sodipodi:cx="236.78572" id="path9301" style="fill:#ffffff;fill-opacity:1;stroke:#000000;stroke-width:2;stroke-linejoin:round;stroke-miterlimit:4;stroke-opacity:1;stroke-dasharray:none;stroke-dashoffset:0" sodipodi:type="arc" transform="matrix(0.24982729,-0.14423785,0.14423785,0.24982729,458.56574,318.53076)"/>
        <path transform="matrix(0.08806797,-0.05084606,0.05084606,0.08806797,516.60086,330.59516)" sodipodi:type="arc" style="fill:#1a1a1a;fill-opacity:1;stroke:#501616;stroke-width:5.67351151;stroke-linejoin:round;stroke-miterlimit:4;stroke-opacity:1;stroke-dasharray:none;stroke-dashoffset:0" id="path9303" sodipodi:cx="236.78572" sodipodi:cy="211.29076" sodipodi:rx="53.92857" sodipodi:ry="53.92857" d="m 290.71429,211.29076 c 0,29.78392 -24.14464,53.92857 -53.92857,53.92857 -29.78393,0 -53.92857,-24.14465 -53.92857,-53.92857 0,-29.78393 24.14464,-53.92857 53.92857,-53.92857 29.78393,0 53.92857,24.14464 53.92857,53.92857 z"/>
        <path inkscape:connector-curvature="0" id="path9305" d="m 533.51133,312.49727 c -8.10838,4.60908 -13.39696,13.52815 -13.96685,22.77487 -0.69626,8.9955 3.22517,18.19268 10.19658,23.93504 7.78112,6.53753 19.11948,8.56096 28.61744,4.84473 2.72244,-1.00129 5.24471,-2.52135 7.56238,-4.25143 6.87196,-5.33002 10.98509,-13.89869 11.00964,-22.56404 0.15001,-7.83927 -3.37119,-15.53658 -8.96106,-20.95656 -6.06958,-5.75922 -14.72339,-8.6752 -23.03591,-7.64396 -4.01601,0.46783 -7.97865,1.71118 -11.42222,3.86135 z m 1.43067,1.15104 c 6.47231,-3.675 14.47711,-4.52067 21.51976,-2.1662 7.56211,2.3497 13.89685,8.2825 16.79813,15.67977 3.92524,9.49519 1.72413,21.03127 -5.35954,28.45461 -4.11266,4.40559 -9.74272,7.38943 -15.71474,8.24788 -8.65915,1.29618 -17.84038,-1.84181 -23.77567,-8.33328 -6.63722,-7.01465 -8.99418,-17.79469 -5.7951,-26.86735 2.00811,-6.30637 6.53617,-11.7782 12.32716,-15.01543 z" style="fill:#333333;fill-opacity:1;stroke:none"/>
        <path inkscape:connector-curvature="0" id="path9307" d="m 534.64519,314.83786 c -7.989,4.76414 -13.01944,14.04096 -12.53745,23.33278 0.28409,9.55778 6.29985,18.71439 15.02813,22.65195 7.21443,3.4228 16.04745,3.26496 23.10563,-0.51203 3.43344,-1.80294 6.50775,-4.29396 8.80625,-7.42917 5.77516,-7.53599 6.98999,-18.33301 2.72642,-26.87303 -2.5895,-5.48439 -7.06965,-10.07343 -12.62124,-12.55922 -7.75301,-3.62526 -17.18653,-3.1079 -24.50774,1.38872 z m 5.54577,8.74945 c 4.75712,-2.88186 11.00395,-2.9032 15.78416,-0.12035 4.42205,2.42247 7.43012,7.19984 7.92038,12.1906 0.68906,6.59997 -3.22189,13.3539 -9.35472,15.94863 -5.76373,2.57569 -12.9945,1.27242 -17.42817,-3.23784 -3.47825,-3.41357 -5.22934,-8.50403 -4.53466,-13.33748 0.59573,-4.69822 3.49164,-9.03068 7.61301,-11.44356 z" style="fill:#666666;fill-opacity:1;stroke:none"/>
        <path d="m 290.71429,211.29076 c 0,29.78392 -24.14464,53.92857 -53.92857,53.92857 -29.78393,0 -53.92857,-24.14465 -53.92857,-53.92857 0,-29.78393 24.14464,-53.92857 53.92857,-53.92857 29.78393,0 53.92857,24.14464 53.92857,53.92857 z" sodipodi:ry="53.92857" sodipodi:rx="53.92857" sodipodi:cy="211.29076" sodipodi:cx="236.78572" id="path9309" style="fill:none;stroke:none" sodipodi:type="arc" transform="matrix(0.02867776,-0.01655711,0.01655711,0.02867776,532.70352,326.00925)"/>
        <path transform="matrix(0.02867776,-0.01655711,0.01655711,0.02867776,542.9766,343.80275)" sodipodi:type="arc" style="fill:none;stroke:none" id="path9311" sodipodi:cx="236.78572" sodipodi:cy="211.29076" sodipodi:rx="53.92857" sodipodi:ry="53.92857" d="m 290.71429,211.29076 c 0,29.78392 -24.14464,53.92857 -53.92857,53.92857 -29.78393,0 -53.92857,-24.14465 -53.92857,-53.92857 0,-29.78393 24.14464,-53.92857 53.92857,-53.92857 29.78393,0 53.92857,24.14464 53.92857,53.92857 z"/>
        <path transform="matrix(0.01655711,0.02867776,-0.02867776,0.01655711,559.16451,321.61947)" sodipodi:type="arc" style="fill:none;stroke:none" id="path9313" sodipodi:cx="236.78572" sodipodi:cy="211.29076" sodipodi:rx="53.92857" sodipodi:ry="53.92857" d="m 290.71429,211.29076 c 0,29.78392 -24.14464,53.92857 -53.92857,53.92857 -29.78393,0 -53.92857,-24.14465 -53.92857,-53.92857 0,-29.78393 24.14464,-53.92857 53.92857,-53.92857 29.78393,0 53.92857,24.14464 53.92857,53.92857 z"/>
        <path d="m 290.71429,211.29076 c 0,29.78392 -24.14464,53.92857 -53.92857,53.92857 -29.78393,0 -53.92857,-24.14465 -53.92857,-53.92857 0,-29.78393 24.14464,-53.92857 53.92857,-53.92857 29.78393,0 53.92857,24.14464 53.92857,53.92857 z" sodipodi:ry="53.92857" sodipodi:rx="53.92857" sodipodi:cy="211.29076" sodipodi:cx="236.78572" id="path9315" style="fill:none;stroke:none" sodipodi:type="arc" transform="matrix(0.01655711,0.02867776,-0.02867776,0.01655711,541.37102,331.89255)"/>
        <path inkscape:connector-curvature="0" id="path9317" d="m 540.41782,323.98024 c -5.27558,3.07869 -8.34537,9.47394 -7.35018,15.50297 0.50477,3.36563 2.24893,6.53288 4.69262,8.88119 4.68227,4.44387 12.26257,5.40077 17.86692,2.16468 4.30643,-2.33657 7.26021,-6.81954 7.76166,-11.68175 0.37202,-3.20179 -0.23469,-6.56043 -2.03918,-9.27721 -1.81919,-3.64702 -5.41365,-6.18578 -9.29571,-7.19731 -3.88424,-1.01226 -8.17529,-0.46621 -11.63613,1.60743 z m 1.75303,2.71958 c 0.78991,-0.5432 1.95711,-0.0465 2.39338,0.70398 0.27491,0.92949 -0.0694,2.15198 -1.14121,2.32949 -1.12269,0.37313 -2.45205,-0.67022 -2.07106,-1.88354 0.1151,-0.4598 0.40707,-0.8899 0.81889,-1.14993 z m 2.84109,5.86262 c 1.0564,-0.73125 2.26391,-1.22484 3.56472,-1.05968 3.08006,0.14141 5.66834,3.13169 5.26004,6.22562 -0.16725,1.92611 -1.37217,3.69564 -3.17189,4.50526 -2.15065,1.20222 -5.15044,0.55739 -6.71871,-1.32179 -2.22735,-2.34847 -1.76322,-6.71599 1.06584,-8.34941 z m -6.6013,8.17067 c 0.78992,-0.54321 1.95712,-0.0466 2.39338,0.70398 0.27491,0.92949 -0.0694,2.15197 -1.14121,2.32948 -1.12267,0.37313 -2.45204,-0.67023 -2.07104,-1.88354 0.11509,-0.4598 0.40706,-0.8899 0.81887,-1.14992 z m 17.79349,-10.27308 c 0.78991,-0.5432 1.95712,-0.0466 2.39338,0.70398 0.27491,0.9295 -0.0694,2.15198 -1.14122,2.32949 -1.12266,0.37313 -2.45204,-0.67023 -2.07103,-1.88354 0.11509,-0.4598 0.40705,-0.8899 0.81887,-1.14993 z m -3.76021,14.03328 c 0.78991,-0.5432 1.95712,-0.0465 2.39339,0.70398 0.2749,0.92949 -0.0694,2.15198 -1.14122,2.32948 -1.12268,0.37314 -2.45205,-0.67021 -2.07105,-1.88354 0.11509,-0.45979 0.40707,-0.88988 0.81888,-1.14992 z" style="fill:#333333;fill-opacity:1;stroke:none"/>
        <path transform="matrix(0.4209612,0,0,0.36781938,447.99626,267.20861)" sodipodi:nodetypes="cssacssaaac" inkscape:connector-curvature="0" id="path9319" d="m 263.77519,245.07463 c -11.30349,1.83078 -11.07665,2.01255 -23.36427,1.97713 -13.27181,-0.0383 -13.35547,-0.0516 -26.93696,-7.32812 -7.91786,-4.24211 -14.48716,-11.47938 -20.44447,-18.80241 -3.22348,-3.96247 -3.58136,-4.49064 -8.07778,-13.35421 1.73161,10.0043 1.83972,10.09612 3.666,13.79874 2.64646,5.36546 3.07923,5.94391 7.69527,12.48842 3.67734,5.21366 8.21892,9.67271 13.23043,13.07452 5.71819,3.8815 12.11517,6.78755 18.67749,8.00729 6.99553,1.30026 14.41499,1.2692 21.24745,-0.88586 5.24297,-1.65371 5.37388,-1.68713 14.30684,-8.9755 z" style="fill:url(#linearGradient9403);fill-opacity:1;stroke:none;filter:url(#filter9251)"/>
        <path sodipodi:type="arc" style="fill:#ffffff;fill-opacity:1;stroke:#000000;stroke-width:2;stroke-linejoin:round;stroke-miterlimit:4;stroke-opacity:1;stroke-dasharray:none;stroke-dashoffset:0" id="path9321" sodipodi:cx="236.78572" sodipodi:cy="211.29076" sodipodi:rx="53.92857" sodipodi:ry="53.92857" d="m 290.71429,211.29076 c 0,29.78392 -24.14464,53.92857 -53.92857,53.92857 -29.78393,0 -53.92857,-24.14465 -53.92857,-53.92857 0,-29.78393 24.14464,-53.92857 53.92857,-53.92857 29.78393,0 53.92857,24.14464 53.92857,53.92857 z" transform="matrix(0.38352819,0.38352819,-0.38352819,0.38352819,602.73141,165.31353)"/>
        <path d="m 290.71429,211.29076 c 0,29.78392 -24.14464,53.92857 -53.92857,53.92857 -29.78393,0 -53.92857,-24.14465 -53.92857,-53.92857 0,-29.78393 24.14464,-53.92857 53.92857,-53.92857 29.78393,0 53.92857,24.14464 53.92857,53.92857 z" sodipodi:ry="53.92857" sodipodi:rx="53.92857" sodipodi:cy="211.29076" sodipodi:cx="236.78572" id="path9323" style="fill:#ffffff;fill-opacity:1;stroke:#000000;stroke-width:2;stroke-linejoin:round;stroke-miterlimit:4;stroke-opacity:1;stroke-dasharray:none;stroke-dashoffset:0" sodipodi:type="arc" transform="matrix(0.34861665,0.34861665,-0.34861665,0.34861665,603.62148,180.95657)"/>
        <path transform="matrix(0.20398312,0.20398312,-0.20398312,0.20398312,607.30891,245.76345)" sodipodi:type="arc" style="fill:#ffffff;fill-opacity:1;stroke:#000000;stroke-width:2;stroke-linejoin:round;stroke-miterlimit:4;stroke-opacity:1;stroke-dasharray:none;stroke-dashoffset:0" id="path9325" sodipodi:cx="236.78572" sodipodi:cy="211.29076" sodipodi:rx="53.92857" sodipodi:ry="53.92857" d="m 290.71429,211.29076 c 0,29.78392 -24.14464,53.92857 -53.92857,53.92857 -29.78393,0 -53.92857,-24.14465 -53.92857,-53.92857 0,-29.78393 24.14464,-53.92857 53.92857,-53.92857 29.78393,0 53.92857,24.14464 53.92857,53.92857 z"/>
        <path d="m 290.71429,211.29076 c 0,29.78392 -24.14464,53.92857 -53.92857,53.92857 -29.78393,0 -53.92857,-24.14465 -53.92857,-53.92857 0,-29.78393 24.14464,-53.92857 53.92857,-53.92857 29.78393,0 53.92857,24.14464 53.92857,53.92857 z" sodipodi:ry="53.92857" sodipodi:rx="53.92857" sodipodi:cy="211.29076" sodipodi:cx="236.78572" id="path9327" style="fill:#1a1a1a;fill-opacity:1;stroke:#501616;stroke-width:5.67351151;stroke-linejoin:round;stroke-miterlimit:4;stroke-opacity:1;stroke-dasharray:none;stroke-dashoffset:0" sodipodi:type="arc" transform="matrix(0.07190719,0.07190719,-0.07190719,0.07190719,610.67619,304.94356)"/>
        <path style="fill:#333333;fill-opacity:1;stroke:none" d="m 632.53416,316.59374 c -6.55065,-6.63917 -16.53459,-9.43913 -25.61374,-7.59637 -8.86918,1.65568 -16.73804,7.82389 -20.48039,16.04398 -4.30087,9.20803 -3.32077,20.68375 2.72708,28.89624 1.67179,2.37053 3.79288,4.41343 6.06386,6.20434 6.927,5.2583 16.26824,7.01354 24.6447,4.79451 7.61097,-1.88405 14.13465,-7.2775 17.92319,-14.0797 3.99205,-7.35334 4.5689,-16.467 1.42136,-24.22937 -1.4913,-3.75808 -3.7179,-7.2639 -6.68606,-10.03363 z m -0.74155,1.67983 c 5.22495,5.30061 8.11359,12.81378 7.66212,20.22585 -0.31241,7.91259 -4.4035,15.56698 -10.79781,20.28397 -8.15573,6.24902 -19.86841,7.10867 -28.87221,2.18767 -5.3199,-2.83227 -9.65923,-7.49821 -12.03411,-13.04456 -3.49317,-8.02863 -2.83838,-17.70918 1.89573,-25.12236 5.05779,-8.22657 14.86049,-13.29331 24.45199,-12.55141 6.61123,0.30748 13.06855,3.26503 17.69429,8.02084 z" id="path9329" inkscape:connector-curvature="0"/>
        <path style="fill:#666666;fill-opacity:1;stroke:none" d="m 630.56678,318.29477 c -6.66951,-6.48375 -16.93221,-8.94177 -25.78266,-6.0713 -9.15858,2.74815 -16.4462,10.92885 -17.99054,20.37881 -1.43894,7.85451 0.99966,16.34569 6.47476,22.18582 2.63015,2.84981 5.83198,5.17464 9.45524,6.58337 8.77395,3.62792 19.51747,2.00687 26.66301,-4.32173 4.62731,-3.92073 7.90043,-9.43595 8.86467,-15.44175 1.49509,-8.42712 -1.4462,-17.40529 -7.68448,-23.31322 z m -7.01597,7.62131 c 4.01491,3.84916 5.65231,9.8776 4.2015,15.21518 -1.19542,4.89836 -5.03146,9.04041 -9.72528,10.80565 -6.19673,2.37379 -13.73275,0.34414 -17.82637,-4.90815 -3.9797,-4.9007 -4.59228,-12.22239 -1.38324,-17.67233 2.39702,-4.24323 6.86082,-7.25215 11.70936,-7.83214 4.69234,-0.64056 9.62669,1.03535 13.02403,4.39179 z" id="path9331" inkscape:connector-curvature="0"/>
        <path transform="matrix(0.0234153,0.0234153,-0.0234153,0.0234153,619.2735,319.31062)" sodipodi:type="arc" style="fill:none;stroke:none" id="path9333" sodipodi:cx="236.78572" sodipodi:cy="211.29076" sodipodi:rx="53.92857" sodipodi:ry="53.92857" d="m 290.71429,211.29076 c 0,29.78392 -24.14464,53.92857 -53.92857,53.92857 -29.78393,0 -53.92857,-24.14465 -53.92857,-53.92857 0,-29.78393 24.14464,-53.92857 53.92857,-53.92857 29.78393,0 53.92857,24.14464 53.92857,53.92857 z"/>
        <path d="m 290.71429,211.29076 c 0,29.78392 -24.14464,53.92857 -53.92857,53.92857 -29.78393,0 -53.92857,-24.14465 -53.92857,-53.92857 0,-29.78393 24.14464,-53.92857 53.92857,-53.92857 29.78393,0 53.92857,24.14464 53.92857,53.92857 z" sodipodi:ry="53.92857" sodipodi:rx="53.92857" sodipodi:cy="211.29076" sodipodi:cx="236.78572" id="path9335" style="fill:none;stroke:none" sodipodi:type="arc" transform="matrix(0.0234153,0.0234153,-0.0234153,0.0234153,604.74517,333.83895)"/>
        <path d="m 290.71429,211.29076 c 0,29.78392 -24.14464,53.92857 -53.92857,53.92857 -29.78393,0 -53.92857,-24.14465 -53.92857,-53.92857 0,-29.78393 24.14464,-53.92857 53.92857,-53.92857 29.78393,0 53.92857,24.14464 53.92857,53.92857 z" sodipodi:ry="53.92857" sodipodi:rx="53.92857" sodipodi:cy="211.29076" sodipodi:cx="236.78572" id="path9337" style="fill:none;stroke:none" sodipodi:type="arc" transform="matrix(-0.0234153,0.0234153,-0.0234153,-0.0234153,630.36232,343.73382)"/>
        <path transform="matrix(-0.0234153,0.0234153,-0.0234153,-0.0234153,615.83399,329.20549)" sodipodi:type="arc" style="fill:none;stroke:none" id="path9339" sodipodi:cx="236.78572" sodipodi:cy="211.29076" sodipodi:rx="53.92857" sodipodi:ry="53.92857" d="m 290.71429,211.29076 c 0,29.78392 -24.14464,53.92857 -53.92857,53.92857 -29.78393,0 -53.92857,-24.14465 -53.92857,-53.92857 0,-29.78393 24.14464,-53.92857 53.92857,-53.92857 29.78393,0 53.92857,24.14464 53.92857,53.92857 z"/>
        <path style="fill:#333333;fill-opacity:1;stroke:none" d="m 623.22998,326.23691 c -4.3392,-4.29899 -11.31105,-5.60897 -16.87707,-3.08726 -3.12032,1.35866 -5.72822,3.86313 -7.36404,6.83134 -3.08059,5.67287 -2.04297,13.24255 2.53337,17.81838 3.37155,3.55495 8.46626,5.24781 13.29258,4.47373 3.18898,-0.46934 6.27614,-1.92465 8.43331,-4.37082 3.05191,-2.70111 4.57385,-6.83018 4.54616,-10.84176 -0.0275,-4.01387 -1.66559,-8.01739 -4.56431,-10.82361 z m -2.1732,2.39718 c 0.72914,0.6224 0.55153,1.87838 -0.0606,2.49403 -0.82668,0.50611 -2.09663,0.48989 -2.54549,-0.49942 -0.65099,-0.98784 0.0128,-2.54195 1.28333,-2.48797 0.47393,-0.008 0.96494,0.16288 1.32269,0.49336 z m -4.92752,4.26164 c 0.97976,0.83115 1.76906,1.86976 1.9462,3.169 0.66058,3.0117 -1.55791,6.28572 -4.65209,6.6921 -1.90377,0.33697 -3.92487,-0.36891 -5.1727,-1.89776 -1.71788,-1.76621 -1.87143,-4.83069 -0.46219,-6.83188 1.69198,-2.75929 6.0308,-3.44137 8.34078,-1.13146 z m -9.60079,-4.26164 c 0.72913,0.6224 0.55151,1.87838 -0.0606,2.49403 -0.82668,0.50611 -2.09662,0.48989 -2.54548,-0.49941 -0.651,-0.98785 0.0128,-2.54196 1.28333,-2.48797 0.47392,-0.008 0.96493,0.16287 1.32269,0.49335 z m 14.52831,14.52832 c 0.72914,0.6224 0.55153,1.87838 -0.0606,2.49403 -0.82668,0.50612 -2.09663,0.4899 -2.54549,-0.49941 -0.65099,-0.98784 0.0128,-2.54196 1.28333,-2.48797 0.47393,-0.008 0.96494,0.16286 1.32269,0.49335 z m -14.52832,0 c 0.72914,0.62241 0.55152,1.87838 -0.0606,2.49403 -0.82667,0.50611 -2.09662,0.4899 -2.54548,-0.49942 -0.65099,-0.98784 0.0128,-2.54195 1.28334,-2.48797 0.47391,-0.008 0.96492,0.16288 1.32267,0.49336 z" id="path9341" inkscape:connector-curvature="0"/>
        <path style="fill:url(#linearGradient9405);fill-opacity:1;stroke:none;filter:url(#filter9251)" d="m 263.77519,245.07463 c -11.30349,1.83078 -11.07665,2.01255 -23.36427,1.97713 -13.27181,-0.0383 -13.35547,-0.0516 -26.93696,-7.32812 -7.91786,-4.24211 -14.48716,-11.47938 -20.44447,-18.80241 -3.22348,-3.96247 -3.58136,-4.49064 -8.07778,-13.35421 1.73161,10.0043 1.83972,10.09612 3.666,13.79874 2.64646,5.36546 3.07923,5.94391 7.69527,12.48842 3.67734,5.21366 8.21892,9.67271 13.23043,13.07452 5.71819,3.8815 12.11517,6.78755 18.67749,8.00729 6.99553,1.30026 14.41499,1.2692 21.24745,-0.88586 5.24297,-1.65371 5.37388,-1.68713 14.30684,-8.9755 z" id="path9343" inkscape:connector-curvature="0" sodipodi:nodetypes="cssacssaaac" transform="matrix(0.4209612,0,0,0.36781938,512.72219,267.20861)"/>
        <path transform="matrix(0.0261513,-0.03670992,0.03670992,0.0261513,534.23867,340.32862)" sodipodi:type="arc" style="fill:#000000;fill-opacity:1;stroke:#501616;stroke-width:5.67351151;stroke-linejoin:round;stroke-miterlimit:4;stroke-opacity:1;stroke-dasharray:none;stroke-dashoffset:0" id="path9537" sodipodi:cx="236.78572" sodipodi:cy="211.29076" sodipodi:rx="53.92857" sodipodi:ry="53.92857" d="m 290.71429,211.29076 c 0,29.78392 -24.14464,53.92857 -53.92857,53.92857 -29.78393,0 -53.92857,-24.14465 -53.92857,-53.92857 0,-29.78393 24.14464,-53.92857 53.92857,-53.92857 29.78393,0 53.92857,24.14464 53.92857,53.92857 z"/>
        <path d="m 290.71429,211.29076 c 0,29.78392 -24.14464,53.92857 -53.92857,53.92857 -29.78393,0 -53.92857,-24.14465 -53.92857,-53.92857 0,-29.78393 24.14464,-53.92857 53.92857,-53.92857 29.78393,0 53.92857,24.14464 53.92857,53.92857 z" sodipodi:ry="53.92857" sodipodi:rx="53.92857" sodipodi:cy="211.29076" sodipodi:cx="236.78572" id="path9563" style="fill:#000000;fill-opacity:1;stroke:#501616;stroke-width:5.67351151;stroke-linejoin:round;stroke-miterlimit:4;stroke-opacity:1;stroke-dasharray:none;stroke-dashoffset:0" sodipodi:type="arc" transform="matrix(0.0261513,-0.03670992,0.03670992,0.0261513,598.56074,340.33034)"/>
      </g>
      <g id="g9976">
        <path style="fill:#ffffff;fill-opacity:1;stroke:#000000;stroke-width:0.5;stroke-linejoin:round;stroke-miterlimit:4;stroke-opacity:1;stroke-dasharray:none;stroke-dashoffset:0" d="m 550.20056,340.35312 c -1.42184,0.0983 -2.29926,2.10454 -1.20257,3.11105 0.91581,0.96366 2.84876,0.52515 3.08315,-0.83984 0.23057,-0.76054 -0.0274,-1.70395 -0.82868,-2.00335 -0.32154,-0.17353 -0.68138,-0.29848 -1.0519,-0.26786 z" id="path9711" inkscape:connector-curvature="0"/>
        <path style="fill:#ffffff;fill-opacity:1;stroke:#000000;stroke-width:0.5;stroke-linejoin:round;stroke-miterlimit:4;stroke-opacity:1;stroke-dasharray:none;stroke-dashoffset:0" d="m 564.22679,344.12265 c -1.35288,0.0811 -2.27442,1.99922 -1.26674,3.01061 0.78121,0.96024 2.49645,0.77628 3.02176,-0.35157 0.43231,-0.81664 0.23487,-1.97149 -0.6529,-2.38839 -0.33194,-0.19436 -0.71654,-0.29733 -1.10212,-0.27065 z" id="path9713" inkscape:connector-curvature="0"/>
        <path style="fill:#333333;fill-opacity:1;stroke:#000000;stroke-width:0.5;stroke-linejoin:round;stroke-miterlimit:4;stroke-opacity:1;stroke-dasharray:none;stroke-dashoffset:0" d="m 553.95893,326.32969 c -1.40492,0.0661 -2.25768,2.01119 -1.24721,3.04687 0.87306,0.98581 2.73226,0.64281 3.10268,-0.65848 0.39359,-0.96542 -0.23589,-2.13404 -1.26674,-2.32143 -0.19144,-0.05 -0.39081,-0.0777 -0.58873,-0.067 z" id="path9719" inkscape:connector-curvature="0"/>
        <path style="fill:#333333;fill-opacity:1;stroke:#000000;stroke-width:0.5;stroke-linejoin:round;stroke-miterlimit:4;stroke-opacity:1;stroke-dasharray:none;stroke-dashoffset:0" d="m 567.96842,330.08806 c -1.43439,0.0831 -2.28226,2.17547 -1.12166,3.13337 0.90868,0.90555 2.72535,0.50985 3.03293,-0.77846 0.39533,-1.02222 -0.38008,-2.16979 -1.43415,-2.32422 -0.15732,-0.0258 -0.3175,-0.0463 -0.47712,-0.0307 z" id="path9721" inkscape:connector-curvature="0"/>
      </g>
      <g id="g9970">
        <path style="fill:#ffffff;fill-opacity:1;stroke:#000000;stroke-width:0.5;stroke-linejoin:round;stroke-miterlimit:4;stroke-opacity:1;stroke-dasharray:none;stroke-dashoffset:0" d="m 616.16038,342.54062 c -1.04008,0.0238 -1.69306,1.14243 -1.47042,2.10101 0.11525,1.08498 1.32452,1.74411 2.32701,1.41741 0.9904,-0.161 1.43486,-1.40253 1.17466,-2.27679 -0.26692,-0.84761 -1.17763,-1.31945 -2.03125,-1.24163 z" id="path9715" inkscape:connector-curvature="0"/>
        <path style="fill:#ffffff;fill-opacity:1;stroke:#000000;stroke-width:0.5;stroke-linejoin:round;stroke-miterlimit:4;stroke-opacity:1;stroke-dasharray:none;stroke-dashoffset:0" d="m 630.71674,342.53225 c -1.09157,0.03 -1.77072,1.22152 -1.48716,2.2154 0.17574,0.89494 1.1265,1.59335 2.03683,1.35882 1.49019,-0.0464 2.08641,-2.26866 0.91239,-3.12221 -0.402,-0.34336 -0.93951,-0.48849 -1.46206,-0.45201 z" id="path9717" inkscape:connector-curvature="0"/>
        <path style="fill:#333333;fill-opacity:1;stroke:#000000;stroke-width:0.5;stroke-linejoin:round;stroke-miterlimit:4;stroke-opacity:1;stroke-dasharray:none;stroke-dashoffset:0" d="m 616.22176,328.00658 c -1.02041,0.0207 -1.73762,1.08663 -1.52622,2.05357 0.0925,0.91223 0.96188,1.71557 1.9029,1.52065 0.7867,0.0225 1.51032,-0.53873 1.62109,-1.33091 0.27221,-0.97993 -0.41426,-2.02887 -1.41462,-2.1875 -0.19001,-0.0455 -0.38783,-0.0637 -0.58315,-0.0558 z" id="path9723" inkscape:connector-curvature="0"/>
        <path style="fill:#333333;fill-opacity:1;stroke:#000000;stroke-width:0.5;stroke-linejoin:round;stroke-miterlimit:4;stroke-opacity:1;stroke-dasharray:none;stroke-dashoffset:0" d="m 630.71116,328.01216 c -1.21717,-0.0142 -1.86434,1.49029 -1.38393,2.50558 0.48023,1.43018 2.8527,1.47394 3.32032,0.0223 0.47394,-0.97165 -0.12179,-2.23511 -1.18862,-2.45257 -0.24357,-0.0621 -0.49662,-0.0878 -0.74777,-0.0753 z" id="path9725" inkscape:connector-curvature="0"/>
      </g>
    </g>
    <rect style="fill:#aa0000;fill-opacity:1;stroke:#000000;stroke-width:0.87172282" id="rect9407" width="653.56873" height="193.43913" x="59.599003" y="127.5726" rx="28.376184" ry="5.0507627"/>
    <path style="fill:none;stroke:#000000;stroke-width:5;stroke-linecap:butt;stroke-linejoin:miter;stroke-miterlimit:4;stroke-opacity:1;stroke-dasharray:none" d="m 250.01277,320.63325 0,-158.59395 272.74119,0 0,158.93686" id="path9623" inkscape:connector-curvature="0" sodipodi:nodetypes="cccc"/>
    <path style="fill:none;stroke:#000000;stroke-width:5;stroke-linecap:round;stroke-linejoin:miter;stroke-miterlimit:4;stroke-opacity:1;stroke-dasharray:none" d="m 92.531547,318.4336 586.722593,0" id="path9645" inkscape:connector-curvature="0"/>
    <g id="g9888">
      <g transform="matrix(1,0,0,0.90589434,0,15.504262)" id="g9785">
        <rect style="fill:url(#linearGradient9827);fill-opacity:1;stroke:#000000;stroke-width:0.5;stroke-linejoin:round;stroke-miterlimit:4;stroke-opacity:1;stroke-dasharray:none;stroke-dashoffset:0" id="rect9767" width="129.01543" height="20.392456" x="252.69597" y="164.75377" rx="0" ry="0"/>
        <rect ry="0" rx="0" y="185.64622" x="252.69597" height="20.392456" width="129.01543" id="rect9777" style="fill:url(#linearGradient9829);fill-opacity:1;stroke:#000000;stroke-width:0.5;stroke-linejoin:round;stroke-miterlimit:4;stroke-opacity:1;stroke-dasharray:none;stroke-dashoffset:0"/>
        <rect style="fill:url(#linearGradient9831);fill-opacity:1;stroke:#000000;stroke-width:0.5;stroke-linejoin:round;stroke-miterlimit:4;stroke-opacity:1;stroke-dasharray:none;stroke-dashoffset:0" id="rect9781" width="129.01543" height="20.392456" x="252.69597" y="206.53868" rx="0" ry="0"/>
      </g>
      <rect style="fill:url(#linearGradient9811);fill-opacity:1;stroke:#000000;stroke-width:0.47778407;stroke-linejoin:round;stroke-miterlimit:4;stroke-opacity:1;stroke-dasharray:none;stroke-dashoffset:0" id="rect9792" width="130.04314" height="18.47341" x="251.68582" y="221.53284" rx="0" ry="0"/>
      <rect ry="0" rx="0" y="240.4592" x="252.69597" height="18.47341" width="129.01543" id="rect9794" style="fill:url(#linearGradient9808);fill-opacity:1;stroke:#000000;stroke-width:0.47589239;stroke-linejoin:round;stroke-miterlimit:4;stroke-opacity:1;stroke-dasharray:none;stroke-dashoffset:0"/>
      <rect style="fill:url(#linearGradient9805);fill-opacity:1;stroke:#000000;stroke-width:0.47589239;stroke-linejoin:round;stroke-miterlimit:4;stroke-opacity:1;stroke-dasharray:none;stroke-dashoffset:0" id="rect9796" width="129.01543" height="18.47341" x="252.69597" y="259.38553" rx="0" ry="0"/>
      <rect ry="0" rx="0" y="278.31189" x="252.69597" height="18.47341" width="129.01543" id="rect9813" style="fill:url(#linearGradient9815);fill-opacity:1;stroke:#000000;stroke-width:0.47589239;stroke-linejoin:round;stroke-miterlimit:4;stroke-opacity:1;stroke-dasharray:none;stroke-dashoffset:0"/>
      <rect style="fill:url(#linearGradient9819);fill-opacity:1;stroke:#000000;stroke-width:0.47589239;stroke-linejoin:round;stroke-miterlimit:4;stroke-opacity:1;stroke-dasharray:none;stroke-dashoffset:0" id="rect9817" width="129.01543" height="18.47341" x="252.69597" y="297.23825" rx="0" ry="0"/>
    </g>
    <g id="g9877">
      <g id="g9843" transform="matrix(1,0,0,0.90589434,138.3909,15.504262)">
        <rect ry="0" rx="0" y="164.75377" x="252.69597" height="20.392456" width="129.01543" id="rect9845" style="fill:url(#linearGradient9861);fill-opacity:1;stroke:#000000;stroke-width:0.5;stroke-linejoin:round;stroke-miterlimit:4;stroke-opacity:1;stroke-dasharray:none;stroke-dashoffset:0"/>
        <rect style="fill:url(#linearGradient9863);fill-opacity:1;stroke:#000000;stroke-width:0.5;stroke-linejoin:round;stroke-miterlimit:4;stroke-opacity:1;stroke-dasharray:none;stroke-dashoffset:0" id="rect9847" width="129.01543" height="20.392456" x="252.69597" y="185.64622" rx="0" ry="0"/>
        <rect ry="0" rx="0" y="206.53868" x="252.69597" height="20.392456" width="129.01543" id="rect9849" style="fill:url(#linearGradient9865);fill-opacity:1;stroke:#000000;stroke-width:0.5;stroke-linejoin:round;stroke-miterlimit:4;stroke-opacity:1;stroke-dasharray:none;stroke-dashoffset:0"/>
      </g>
      <rect ry="0" rx="0" y="221.53284" x="390.07672" height="18.47341" width="130.04314" id="rect9851" style="fill:url(#linearGradient9867);fill-opacity:1;stroke:#000000;stroke-width:0.47778407;stroke-linejoin:round;stroke-miterlimit:4;stroke-opacity:1;stroke-dasharray:none;stroke-dashoffset:0"/>
      <rect style="fill:url(#linearGradient9869);fill-opacity:1;stroke:#000000;stroke-width:0.47589239;stroke-linejoin:round;stroke-miterlimit:4;stroke-opacity:1;stroke-dasharray:none;stroke-dashoffset:0" id="rect9853" width="129.01543" height="18.47341" x="391.08685" y="240.4592" rx="0" ry="0"/>
      <rect ry="0" rx="0" y="259.38553" x="391.08685" height="18.47341" width="129.01543" id="rect9855" style="fill:url(#linearGradient9871);fill-opacity:1;stroke:#000000;stroke-width:0.47589239;stroke-linejoin:round;stroke-miterlimit:4;stroke-opacity:1;stroke-dasharray:none;stroke-dashoffset:0"/>
      <rect style="fill:url(#linearGradient9873);fill-opacity:1;stroke:#000000;stroke-width:0.47589239;stroke-linejoin:round;stroke-miterlimit:4;stroke-opacity:1;stroke-dasharray:none;stroke-dashoffset:0" id="rect9857" width="129.01543" height="18.47341" x="391.08685" y="278.31189" rx="0" ry="0"/>
      <rect ry="0" rx="0" y="297.23825" x="391.08685" height="18.47341" width="129.01543" id="rect9859" style="fill:url(#linearGradient9875);fill-opacity:1;stroke:#000000;stroke-width:0.47589239;stroke-linejoin:round;stroke-miterlimit:4;stroke-opacity:1;stroke-dasharray:none;stroke-dashoffset:0"/>
    </g>
    <g id="g9917">
      <path sodipodi:nodetypes="cc" inkscape:connector-curvature="0" id="path9625" d="m 383.88337,162.92287 0,157.71468" style="fill:none;stroke:#000000;stroke-width:4;stroke-linecap:butt;stroke-linejoin:miter;stroke-miterlimit:4;stroke-opacity:1;stroke-dasharray:none"/>
      <path style="fill:none;stroke:#000000;stroke-width:4;stroke-linecap:butt;stroke-linejoin:miter;stroke-miterlimit:4;stroke-opacity:1;stroke-dasharray:none" d="m 388.88337,162.20858 0,158.69682" id="path9627" inkscape:connector-curvature="0" sodipodi:nodetypes="cc"/>
      <rect ry="5.0507627" rx="28.376184" y="242.36218" x="377.14285" height="42.142857" width="18.571428" id="rect9633" style="fill:url(#linearGradient9905);fill-opacity:1;stroke:#000000;stroke-width:1;stroke-linejoin:round;stroke-miterlimit:4;stroke-opacity:1;stroke-dasharray:none;stroke-dashoffset:0"/>
      <path inkscape:connector-curvature="0" id="path9647" d="m 377.29198,274.54472 18.43528,0" style="fill:none;stroke:#000000;stroke-width:1px;stroke-linecap:butt;stroke-linejoin:miter;stroke-opacity:1"/>
      <path inkscape:connector-curvature="0" id="path9649" d="m 377.29198,253.96286 18.68782,0" style="fill:none;stroke:#000000;stroke-width:1px;stroke-linecap:butt;stroke-linejoin:miter;stroke-opacity:1"/>
      <rect ry="0" rx="0" y="259.51929" x="383.65063" height="9.0913725" width="5.5558391" id="rect9651" style="fill:#800000;fill-opacity:1;stroke:#000000;stroke-width:0.5;stroke-linejoin:round;stroke-miterlimit:4;stroke-opacity:1;stroke-dasharray:none;stroke-dashoffset:0"/>
      <g transform="translate(-1.5439594,0)" id="g9913">
        <path style="fill:none;stroke:#cccccc;stroke-width:2.72017384px;stroke-linecap:butt;stroke-linejoin:miter;stroke-opacity:1" d="m 362.75472,208.37973 5.75591,2.20721 0,75.96687 -6.62347,1.43858" id="path9653" inkscape:connector-curvature="0" sodipodi:nodetypes="cccc"/>
        <path sodipodi:nodetypes="cccc" inkscape:connector-curvature="0" id="path9911" d="m 413.09993,208.37973 -5.75591,2.20721 0,75.96687 6.62347,1.43858" style="fill:none;stroke:#cccccc;stroke-width:2.72017384px;stroke-linecap:butt;stroke-linejoin:miter;stroke-opacity:1"/>
      </g>
    </g>
    <g id="g10059">
      <rect ry="0.76504838" rx="0" y="294.14789" x="42.217804" height="17.142859" width="16.695339" id="rect10023" style="fill:url(#linearGradient10045);fill-opacity:1;stroke:#000000;stroke-width:0.5;stroke-linecap:round;stroke-linejoin:round;stroke-miterlimit:4;stroke-opacity:1;stroke-dasharray:none;stroke-dashoffset:0"/>
      <rect style="fill:url(#linearGradient10033);fill-opacity:1;stroke:#000000;stroke-width:0.5;stroke-linecap:round;stroke-linejoin:round;stroke-miterlimit:4;stroke-opacity:1;stroke-dasharray:none;stroke-dashoffset:0" id="rect10025" width="9.2454634" height="25.729156" x="49.667679" y="289.85474" rx="0" ry="0.76504844"/>
      <rect ry="0.76504844" rx="0" y="289.85474" x="41.33392" height="25.729156" width="2.3006647" id="rect10035" style="fill:url(#linearGradient10037);fill-opacity:1;stroke:#000000;stroke-width:0.5;stroke-linecap:round;stroke-linejoin:round;stroke-miterlimit:4;stroke-opacity:1;stroke-dasharray:none;stroke-dashoffset:0"/>
    </g>
    <g id="g10064" transform="matrix(-1,0,0,1,772.76673,0)">
      <rect style="fill:url(#linearGradient10072);fill-opacity:1;stroke:#000000;stroke-width:0.5;stroke-linecap:round;stroke-linejoin:round;stroke-miterlimit:4;stroke-opacity:1;stroke-dasharray:none;stroke-dashoffset:0" id="rect10066" width="16.695339" height="17.142859" x="42.217804" y="294.14789" rx="0" ry="0.76504838"/>
      <rect ry="0.76504844" rx="0" y="289.85474" x="49.667679" height="25.729156" width="9.2454634" id="rect10068" style="fill:url(#linearGradient10074);fill-opacity:1;stroke:#000000;stroke-width:0.5;stroke-linecap:round;stroke-linejoin:round;stroke-miterlimit:4;stroke-opacity:1;stroke-dasharray:none;stroke-dashoffset:0"/>
      <rect style="fill:url(#linearGradient10076);fill-opacity:1;stroke:#000000;stroke-width:0.5;stroke-linecap:round;stroke-linejoin:round;stroke-miterlimit:4;stroke-opacity:1;stroke-dasharray:none;stroke-dashoffset:0" id="rect10070" width="2.3006647" height="25.729156" x="41.33392" y="289.85474" rx="0" ry="0.76504844"/>
    </g>
    <g id="g10144" transform="matrix(0.78785795,0,0,1,144.90855,0)">
      <rect ry="0" rx="0" y="128.11978" x="525.07306" height="187.89676" width="22.142857" id="rect10078" style="fill:url(#linearGradient10183);fill-opacity:1;stroke:#000000;stroke-width:0.56330812;stroke-linecap:round;stroke-linejoin:round;stroke-miterlimit:4;stroke-opacity:1;stroke-dasharray:none;stroke-dashoffset:0"/>
      <rect style="fill:url(#linearGradient10185);fill-opacity:1;stroke:#000000;stroke-width:0.56330812;stroke-linecap:round;stroke-linejoin:round;stroke-miterlimit:4;stroke-opacity:1;stroke-dasharray:none;stroke-dashoffset:0" id="rect10088" width="22.142857" height="187.89676" x="547.71594" y="128.11978" rx="0" ry="0"/>
      <rect ry="0" rx="0" y="128.11978" x="570.35883" height="187.89676" width="22.142857" id="rect10092" style="fill:url(#linearGradient10187);fill-opacity:1;stroke:#000000;stroke-width:0.56330812;stroke-linecap:round;stroke-linejoin:round;stroke-miterlimit:4;stroke-opacity:1;stroke-dasharray:none;stroke-dashoffset:0"/>
      <rect style="fill:url(#linearGradient10189);fill-opacity:1;stroke:#000000;stroke-width:0.56330812;stroke-linecap:round;stroke-linejoin:round;stroke-miterlimit:4;stroke-opacity:1;stroke-dasharray:none;stroke-dashoffset:0" id="rect10096" width="22.142857" height="187.89676" x="593.00171" y="128.11978" rx="0" ry="0"/>
      <rect ry="0" rx="0" y="128.11978" x="615.64459" height="187.89676" width="22.142857" id="rect10100" style="fill:url(#linearGradient10191);fill-opacity:1;stroke:#000000;stroke-width:0.56330812;stroke-linecap:round;stroke-linejoin:round;stroke-miterlimit:4;stroke-opacity:1;stroke-dasharray:none;stroke-dashoffset:0"/>
      <rect style="fill:url(#linearGradient10193);fill-opacity:1;stroke:#000000;stroke-width:0.56330812;stroke-linecap:round;stroke-linejoin:round;stroke-miterlimit:4;stroke-opacity:1;stroke-dasharray:none;stroke-dashoffset:0" id="rect10136" width="22.142857" height="187.89676" x="638.28748" y="128.11978" rx="0" ry="0"/>
      <rect ry="0" rx="0" y="128.11978" x="660.93036" height="187.89676" width="22.142857" id="rect10140" style="fill:url(#linearGradient10195);fill-opacity:1;stroke:#000000;stroke-width:0.56330812;stroke-linecap:round;stroke-linejoin:round;stroke-miterlimit:4;stroke-opacity:1;stroke-dasharray:none;stroke-dashoffset:0"/>
    </g>
    <g id="g10153" transform="matrix(0.79237161,0,0,1,-326.87278,0)">
      <rect style="fill:url(#linearGradient10169);fill-opacity:1;stroke:#000000;stroke-width:0.56170142;stroke-linecap:round;stroke-linejoin:round;stroke-miterlimit:4;stroke-opacity:1;stroke-dasharray:none;stroke-dashoffset:0" id="rect10155" width="22.142857" height="187.89676" x="525.07306" y="128.11978" rx="0" ry="0"/>
      <rect ry="0" rx="0" y="128.11978" x="547.71594" height="187.89676" width="22.142857" id="rect10157" style="fill:url(#linearGradient10171);fill-opacity:1;stroke:#000000;stroke-width:0.56170142;stroke-linecap:round;stroke-linejoin:round;stroke-miterlimit:4;stroke-opacity:1;stroke-dasharray:none;stroke-dashoffset:0"/>
      <rect style="fill:url(#linearGradient10173);fill-opacity:1;stroke:#000000;stroke-width:0.56170142;stroke-linecap:round;stroke-linejoin:round;stroke-miterlimit:4;stroke-opacity:1;stroke-dasharray:none;stroke-dashoffset:0" id="rect10159" width="22.142857" height="187.89676" x="570.35883" y="128.11978" rx="0" ry="0"/>
      <rect ry="0" rx="0" y="128.11978" x="593.00171" height="187.89676" width="22.142857" id="rect10161" style="fill:url(#linearGradient10175);fill-opacity:1;stroke:#000000;stroke-width:0.56170142;stroke-linecap:round;stroke-linejoin:round;stroke-miterlimit:4;stroke-opacity:1;stroke-dasharray:none;stroke-dashoffset:0"/>
      <rect style="fill:url(#linearGradient10177);fill-opacity:1;stroke:#000000;stroke-width:0.56170142;stroke-linecap:round;stroke-linejoin:round;stroke-miterlimit:4;stroke-opacity:1;stroke-dasharray:none;stroke-dashoffset:0" id="rect10163" width="22.142857" height="187.89676" x="615.64459" y="128.11978" rx="0" ry="0"/>
      <rect ry="0" rx="0" y="128.11978" x="638.28748" height="187.89676" width="22.142857" id="rect10165" style="fill:url(#linearGradient10179);fill-opacity:1;stroke:#000000;stroke-width:0.56170142;stroke-linecap:round;stroke-linejoin:round;stroke-miterlimit:4;stroke-opacity:1;stroke-dasharray:none;stroke-dashoffset:0"/>
      <rect style="fill:url(#linearGradient10181);fill-opacity:1;stroke:#000000;stroke-width:0.56170142;stroke-linecap:round;stroke-linejoin:round;stroke-miterlimit:4;stroke-opacity:1;stroke-dasharray:none;stroke-dashoffset:0" id="rect10167" width="22.142857" height="187.89676" x="660.93036" y="128.11978" rx="0" ry="0"/>
    </g>
    <path inkscape:connector-curvature="0" id="path10021" d="m 92.531547,162.00503 586.722593,0" style="fill:none;stroke:#000000;stroke-width:5;stroke-linecap:round;stroke-linejoin:miter;stroke-miterlimit:4;stroke-opacity:1;stroke-dasharray:none"/>
  </g>
  <metadata>
    <rdf:RDF>
      <cc:Work>
        <dc:format>image/svg+xml</dc:format>
        <dc:type rdf:resource="http://purl.org/dc/dcmitype/StillImage"/>
        <cc:license rdf:resource="http://creativecommons.org/licenses/publicdomain/"/>
        <dc:publisher>
          <cc:Agent rdf:about="http://openclipart.org/">
            <dc:title>Open Clip Art Library</dc:title>
          </cc:Agent>
        </dc:publisher>
        <dc:title>train waggon</dc:title>
        <dc:date>2012-07-24T14:02:59</dc:date>
        <dc:description/>
        <dc:source>http://openclipart.org/detail/171288/train-waggon-by-cprostire-171288</dc:source>
        <dc:creator>
          <cc:Agent>
            <dc:title>cprostire</dc:title>
          </cc:Agent>
        </dc:creator>
        <dc:subject>
          <rdf:Bag>
            <rdf:li>box car</rdf:li>
            <rdf:li>boxcar</rdf:li>
            <rdf:li>car</rdf:li>
            <rdf:li>clip art</rdf:li>
            <rdf:li>clipart</rdf:li>
            <rdf:li>goods</rdf:li>
            <rdf:li>goods car</rdf:li>
            <rdf:li>train</rdf:li>
            <rdf:li>train car</rdf:li>
            <rdf:li>waggon</rdf:li>
          </rdf:Bag>
        </dc:subject>
      </cc:Work>
      <cc:License rdf:about="http://creativecommons.org/licenses/publicdomain/">
        <cc:permits rdf:resource="http://creativecommons.org/ns#Reproduction"/>
        <cc:permits rdf:resource="http://creativecommons.org/ns#Distribution"/>
        <cc:permits rdf:resource="http://creativecommons.org/ns#DerivativeWorks"/>
      </cc:License>
    </rdf:RDF>
  </metadata>
</svg>
